<svg width="189" height="57" viewBox="0 0 189 57" fill="none" xmlns="http://www.w3.org/2000/svg">
<path d="M181.194 55.4753H7.08681C3.55843 55.4753 0.699219 52.5954 0.699219 49.0415V7.49731C0.699219 3.94338 3.55843 1.06348 7.08681 1.06348H181.194C184.723 1.06348 187.582 3.94338 187.582 7.49731V49.0415C187.582 52.5954 184.723 55.4753 181.194 55.4753Z" fill="black"/>
<mask id="mask0_362_6157" style="mask-type:luminance" maskUnits="userSpaceOnUse" x="0" y="0" width="189" height="58">
<path d="M0 0.362305H188.275V57.0073H0V0.362305Z" fill="white"/>
</mask>
<g mask="url(#mask0_362_6157)">
<path d="M7.0838 1.76771C3.94746 1.76771 1.39581 4.33784 1.39581 7.49689V49.0411C1.39581 52.2001 3.94746 54.7703 7.0838 54.7703H181.195C184.331 54.7703 186.883 52.2001 186.883 49.0411V7.49689C186.883 4.33784 184.331 1.76771 181.195 1.76771H7.0838ZM181.195 56.1796H7.0838C3.1769 56.1796 0 52.9763 0 49.0411V7.49689C0 3.5617 3.1769 0.358398 7.0838 0.358398H181.195C185.102 0.358398 188.278 3.5617 188.278 7.49689V49.0411C188.278 52.9763 185.102 56.1796 181.195 56.1796Z" fill="#A7A9AB"/>
</g>
<path d="M65.2883 14.9692L64.5718 12.7088C64.3961 12.1505 64.2474 11.5276 64.1122 10.9965H64.0852C63.9534 11.5276 63.8148 12.1642 63.6559 12.7088L62.953 14.9692H65.2883ZM62.6826 16.2321L61.8985 18.8329H60.1816L63.1017 9.66211H65.2207L68.178 18.8329H66.3969L65.5722 16.2321" fill="white"/>
<path d="M70.6622 12.209L71.7302 15.5655C71.9195 16.151 72.0513 16.682 72.173 17.2267H72.2135C72.3352 16.682 72.4839 16.1646 72.6596 15.5655L73.7141 12.209H75.4546L72.9435 18.8335H71.3111L68.8643 12.209" fill="white"/>
<path d="M80.4675 15.5921C79.2914 15.5785 78.1693 15.8236 78.1693 16.8312C78.1693 17.4848 78.5884 17.7844 79.1156 17.7844C79.7882 17.7844 80.2647 17.3486 80.4236 16.8721C80.4675 16.7495 80.4675 16.627 80.4675 16.5044V15.5921ZM82.0864 17.2397C82.0864 17.8388 82.1134 18.4243 82.1945 18.8294H80.694L80.5757 18.0975H80.5317C80.1431 18.6116 79.4536 18.9792 78.5884 18.9792C77.2636 18.9792 76.5234 18.0158 76.5234 17.0082C76.5234 15.347 77.9936 14.4926 80.4236 14.5062V14.3972C80.4236 13.9615 80.2512 13.2398 79.0886 13.2398C78.4397 13.2398 77.7638 13.4441 77.3177 13.73L76.9932 12.6407C77.4799 12.3411 78.3316 12.0586 79.3725 12.0586C81.478 12.0586 82.0864 13.4032 82.0864 14.8602" fill="white"/>
<path d="M84.4345 12.2085H86.0939V18.833H84.4345V12.2085ZM85.2557 11.2553C84.7048 11.2553 84.3398 10.8468 84.3398 10.3566C84.3398 9.83922 84.715 9.44434 85.2726 9.44434C85.837 9.44434 86.1885 9.83922 86.202 10.3566C86.202 10.8468 85.837 11.2553 85.2726 11.2553" fill="white"/>
<path d="M88.4834 18.8328H90.1462V9.1582H88.4834V18.8328Z" fill="white"/>
<path d="M96.0339 15.5921C94.8578 15.5785 93.7357 15.8236 93.7357 16.8312C93.7357 17.4848 94.1548 17.7844 94.6821 17.7844C95.358 17.7844 95.8311 17.3486 95.9934 16.8721C96.0339 16.7495 96.0339 16.627 96.0339 16.5044V15.5921ZM97.6528 17.2397C97.6528 17.8388 97.6798 18.4243 97.7609 18.8294H96.2637L96.1421 18.0975H96.1015C95.7095 18.6116 95.02 18.9792 94.1548 18.9792C92.8334 18.9792 92.0898 18.0158 92.0898 17.0082C92.0898 15.347 93.5634 14.4926 95.9934 14.5062V14.3972C95.9934 13.9615 95.8176 13.2398 94.655 13.2398C94.0061 13.2398 93.3302 13.4441 92.8874 13.73L92.563 12.6407C93.0497 12.3411 93.898 12.0586 94.9389 12.0586C97.0445 12.0586 97.6528 13.4032 97.6528 14.8602" fill="white"/>
<path d="M101.663 16.0959C101.663 16.232 101.677 16.3682 101.704 16.4907C101.879 17.1716 102.461 17.6618 103.174 17.6618C104.215 17.6618 104.85 16.8311 104.85 15.4865C104.85 14.3155 104.296 13.3623 103.187 13.3623C102.511 13.3623 101.893 13.8525 101.717 14.5878C101.69 14.7104 101.663 14.8601 101.663 15.0235V16.0959ZM100 9.1582H101.663V13.1172H101.69C102.096 12.4772 102.809 12.0585 103.796 12.0585C105.404 12.0585 106.55 13.4032 106.537 15.4184C106.537 17.7979 105.039 18.9826 103.552 18.9826C102.701 18.9826 101.947 18.6558 101.474 17.8388H101.447L101.366 18.8328H99.9463C99.9733 18.3834 100 17.6481 100 16.9809" fill="white"/>
<path d="M108.494 18.8328H110.154V9.1582H108.494V18.8328Z" fill="white"/>
<path d="M116.623 14.8194C116.636 14.2066 116.366 13.199 115.261 13.199C114.233 13.199 113.8 14.1385 113.733 14.8194H116.623ZM113.733 15.987C113.773 17.1852 114.706 17.7027 115.761 17.7027C116.528 17.7027 117.069 17.5801 117.582 17.4031L117.826 18.5435C117.258 18.792 116.474 18.9656 115.531 18.9656C113.395 18.9656 112.138 17.6482 112.138 15.6227C112.138 13.7845 113.246 12.0586 115.355 12.0586C117.488 12.0586 118.191 13.8253 118.191 15.2823C118.191 15.5955 118.164 15.8406 118.137 15.987" fill="white"/>
<path d="M126.441 17.7707C127.384 17.7707 128.046 16.8448 128.046 15.5002C128.046 14.4653 127.587 13.2671 126.455 13.2671C125.278 13.2671 124.805 14.4245 124.805 15.5274C124.805 16.804 125.441 17.7707 126.424 17.7707H126.441ZM126.387 18.9826C124.535 18.9826 123.092 17.7027 123.092 15.5683C123.092 13.3896 124.508 12.0586 126.495 12.0586C128.452 12.0586 129.763 13.4441 129.763 15.4593C129.763 17.8933 128.06 18.9826 126.4 18.9826" fill="white"/>
<path d="M131.716 14.1794C131.716 13.4168 131.692 12.7769 131.665 12.205H133.108L133.189 13.199H133.23C133.527 12.6816 134.244 12.0586 135.339 12.0586C136.484 12.0586 137.674 12.8041 137.674 14.9011V18.8294H136.011V15.0917C136.011 14.1385 135.66 13.4168 134.757 13.4168C134.095 13.4168 133.635 13.8934 133.46 14.3972C133.406 14.5334 133.379 14.7377 133.379 14.9283V18.8294H131.716" fill="white"/>
<path d="M145.329 10.5068V12.2055H146.908V13.4582H145.329V16.3688C145.329 17.1858 145.546 17.5943 146.178 17.5943C146.475 17.5943 146.637 17.5807 146.826 17.5262L146.854 18.7891C146.61 18.8878 146.164 18.9661 145.65 18.9661C145.032 18.9661 144.532 18.7619 144.221 18.4249C143.856 18.0436 143.694 17.4309 143.694 16.5594V13.4582H142.761V12.2055H143.694V10.9698" fill="white"/>
<path d="M148.757 9.1582H150.42V13.1036H150.447C150.649 12.7904 150.933 12.5317 151.271 12.3547C151.609 12.1675 151.998 12.0585 152.417 12.0585C153.539 12.0585 154.712 12.804 154.712 14.9282V18.8328H153.052V15.1052C153.052 14.1521 152.701 13.4168 151.782 13.4168C151.136 13.4168 150.676 13.8525 150.487 14.3563C150.433 14.5061 150.42 14.6831 150.42 14.8601V18.8328H148.757" fill="white"/>
<path d="M161.139 14.8194C161.153 14.2066 160.882 13.199 159.774 13.199C158.746 13.199 158.317 14.1385 158.25 14.8194H161.139ZM158.25 15.987C158.29 17.1852 159.219 17.7027 160.274 17.7027C161.044 17.7027 161.585 17.5801 162.096 17.4031L162.342 18.5435C161.775 18.792 160.99 18.9656 160.044 18.9656C157.912 18.9656 156.654 17.6482 156.654 15.6227C156.654 13.7845 157.763 12.0586 159.868 12.0586C162.001 12.0586 162.704 13.8253 162.704 15.2823C162.704 15.5955 162.677 15.8406 162.65 15.987" fill="white"/>
<path d="M42.02 27.7253C41.9761 23.1876 45.7072 20.9783 45.8796 20.8761C43.7673 17.7716 40.4924 17.3495 39.3399 17.3154C36.5922 17.0261 33.9257 18.9766 32.5265 18.9766C31.0969 18.9766 28.9373 17.346 26.6154 17.3937C23.621 17.4414 20.8227 19.1877 19.2883 21.894C16.1249 27.4189 18.4839 35.5344 21.5189 40.0006C23.0397 42.1861 24.8107 44.6303 27.1325 44.5418C29.4037 44.4465 30.252 43.0848 32.9929 43.0848C35.7101 43.0848 36.5077 44.5418 38.8769 44.4873C41.3136 44.4465 42.848 42.2916 44.3114 40.0823C46.0688 37.5769 46.7718 35.1089 46.7989 34.9829C46.7414 34.9625 42.0673 33.1651 42.02 27.7253Z" fill="white"/>
<path d="M37.5447 14.3809C38.7648 12.8422 39.6064 10.7453 39.3698 8.62109C37.6022 8.70279 35.3919 9.85339 34.1178 11.358C32.9923 12.6856 31.9818 14.8609 32.2454 16.9034C34.2327 17.0532 36.2706 15.8958 37.5447 14.3809Z" fill="white"/>
<path d="M69.4294 36.3889L67.8613 31.5107C67.6957 31.0137 67.3847 29.8393 66.9251 27.9943H66.871C66.6885 28.7874 66.3911 29.9619 65.9889 31.5107L64.4478 36.3889H69.4294ZM74.8504 44.181H71.6837L69.9499 38.6935H63.9273L62.2746 44.181H59.1924L65.1677 25.499H68.8515" fill="white"/>
<path d="M87.1789 37.3897C87.1789 36.0757 86.8849 34.9966 86.2968 34.1456C85.6547 33.2605 84.7929 32.8145 83.7114 32.8145C82.978 32.8145 82.3088 33.063 81.7173 33.5498C81.1225 34.0434 80.7305 34.6834 80.5446 35.48C80.4533 35.8476 80.4094 36.1506 80.4094 36.3889V38.6356C80.4094 39.616 80.7068 40.4432 81.3016 41.1173C81.8999 41.7947 82.6738 42.1283 83.6269 42.1283C84.7489 42.1283 85.6209 41.696 86.2394 40.8245C86.868 39.9564 87.1789 38.8126 87.1789 37.3897ZM90.2071 37.2774C90.2071 39.5684 89.592 41.3828 88.3618 42.7104C87.26 43.895 85.8912 44.484 84.2622 44.484C82.4981 44.484 81.2341 43.844 80.4635 42.5708H80.4094V49.6685H77.4353V35.143C77.4353 33.703 77.4015 32.2256 77.3271 30.7074H79.9396L80.1052 32.8452H80.1627C81.1529 31.235 82.6569 30.4316 84.6746 30.4316C86.2495 30.4316 87.5709 31.0614 88.622 32.3175C89.6765 33.5771 90.2071 35.2281 90.2071 37.2774Z" fill="white"/>
<path d="M102.559 37.3897C102.559 36.0757 102.265 34.9966 101.677 34.1456C101.035 33.2605 100.173 32.8145 99.0918 32.8145C98.3584 32.8145 97.6926 33.063 97.0978 33.5498C96.4996 34.0434 96.1143 34.6834 95.9318 35.48C95.8371 35.8476 95.7932 36.1506 95.7932 36.3889V38.6356C95.7932 39.616 96.0872 40.4432 96.6821 41.1173C97.2803 41.7947 98.0542 42.1283 99.0107 42.1283C100.129 42.1283 101.001 41.696 101.623 40.8245C102.245 39.9564 102.559 38.8126 102.559 37.3897ZM105.584 37.2774C105.584 39.5684 104.972 41.3828 103.742 42.7104C102.64 43.895 101.275 44.484 99.6427 44.484C97.8818 44.484 96.6178 43.844 95.8439 42.5708H95.7932V49.6685H92.8191V35.143C92.8191 33.703 92.7819 32.2256 92.7109 30.7074H95.3234L95.489 32.8452H95.5465C96.5334 31.235 98.0373 30.4316 100.055 30.4316C101.633 30.4316 102.948 31.0614 104.006 32.3175C105.06 33.5771 105.584 35.2281 105.584 37.2774Z" fill="white"/>
<path d="M122.787 38.9418C122.787 40.5282 122.239 41.8217 121.137 42.8226C119.927 43.9119 118.248 44.4566 116.088 44.4566C114.091 44.4566 112.489 44.0685 111.275 43.2923L111.965 40.8005C113.273 41.5937 114.702 41.9885 116.264 41.9885C117.382 41.9885 118.254 41.7366 118.88 41.2294C119.502 40.7188 119.812 40.038 119.812 39.1869C119.812 38.4312 119.559 37.7878 119.045 37.2704C118.532 36.753 117.676 36.273 116.483 35.827C113.236 34.605 111.613 32.8178 111.613 30.4689C111.613 28.9336 112.181 27.6741 113.32 26.6937C114.456 25.7133 115.97 25.2197 117.859 25.2197C119.549 25.2197 120.951 25.5193 122.07 26.1082L121.327 28.549C120.282 27.9771 119.099 27.6877 117.778 27.6877C116.73 27.6877 115.916 27.9464 115.331 28.4639C114.838 28.9268 114.587 29.4919 114.587 30.1557C114.587 30.8944 114.868 31.5038 115.439 31.9838C115.933 32.4263 116.832 32.9063 118.136 33.4271C119.731 34.0739 120.904 34.8296 121.658 35.6977C122.408 36.5657 122.787 37.6483 122.787 38.9418Z" fill="white"/>
<path d="M132.609 32.9533H129.334V39.4927C129.334 41.1573 129.912 41.9879 131.071 41.9879C131.598 41.9879 132.041 41.9437 132.389 41.8518L132.47 44.1223C131.889 44.347 131.115 44.4559 130.162 44.4559C128.989 44.4559 128.07 44.0951 127.408 43.3768C126.749 42.6551 126.417 41.4433 126.417 39.7446V32.9533H124.464V30.7066H126.417V28.242L129.334 27.3535V30.7066H132.609" fill="white"/>
<path d="M144.306 37.4306C144.306 36.1881 144.039 35.126 143.505 34.2341C142.887 33.1584 141.994 32.6205 140.838 32.6205C139.645 32.6205 138.736 33.1584 138.114 34.2341C137.58 35.126 137.32 36.2085 137.32 37.4884C137.32 38.7309 137.58 39.793 138.114 40.6815C138.757 41.7572 139.656 42.2951 140.815 42.2951C141.947 42.2951 142.839 41.7504 143.481 40.6543C144.032 39.7488 144.306 38.6731 144.306 37.4306ZM147.388 37.3352C147.388 39.405 146.804 41.1036 145.627 42.4347C144.397 43.8031 142.765 44.484 140.73 44.484C138.763 44.484 137.202 43.827 136.036 42.5164C134.873 41.2058 134.292 39.5513 134.292 37.5565C134.292 35.4664 134.89 33.7575 136.093 32.4299C137.293 31.0954 138.912 30.4316 140.947 30.4316C142.91 30.4316 144.492 31.0886 145.682 32.3992C146.82 33.6792 147.388 35.32 147.388 37.3352Z" fill="white"/>
<path d="M157.047 33.3422C156.753 33.2877 156.442 33.2605 156.111 33.2605C155.067 33.2605 154.256 33.6588 153.688 34.4519C153.195 35.1566 152.948 36.0417 152.948 37.1106V44.181H149.977L150.001 34.9523C150.001 33.3967 149.964 31.9839 149.893 30.7074H152.481L152.59 33.2877H152.667C152.982 32.4026 153.478 31.6878 154.154 31.1533C154.817 30.6733 155.533 30.4316 156.304 30.4316C156.578 30.4316 156.828 30.4521 157.047 30.4861" fill="white"/>
<path d="M167.5 36.0313C167.52 35.1463 167.328 34.3769 166.925 33.7301C166.412 32.8995 165.618 32.4808 164.556 32.4808C163.586 32.4808 162.795 32.8893 162.191 33.7029C161.697 34.3497 161.4 35.1258 161.315 36.0313H167.5ZM170.332 36.8075C170.332 37.3453 170.298 37.7947 170.227 38.1657H161.315C161.346 39.4968 161.778 40.5146 162.606 41.2159C163.357 41.8456 164.33 42.1554 165.523 42.1554C166.841 42.1554 168.044 41.9444 169.129 41.5188L169.595 43.5988C168.328 44.1502 166.834 44.4328 165.107 44.4328C163.035 44.4328 161.406 43.8166 160.224 42.5843C159.044 41.3588 158.449 39.7078 158.449 37.6381C158.449 35.6058 158.997 33.914 160.102 32.5659C161.254 31.1226 162.816 30.4043 164.776 30.4043C166.702 30.4043 168.166 31.1226 169.156 32.5659C169.943 33.7097 170.332 35.1258 170.332 36.8075Z" fill="white"/>
</svg>
