<svg width="47" height="46" viewBox="0 0 47 46" fill="none" xmlns="http://www.w3.org/2000/svg">
<circle cx="23.1064" cy="23" r="23" fill="#8321F2" fill-opacity="0.1"/>
<g clip-path="url(#clip0_710_35)">
<path d="M23.1064 11.75C16.9021 11.75 11.8564 16.7957 11.8564 23C11.8564 29.2043 16.9021 34.25 23.1064 34.25C29.3108 34.25 34.3564 29.2043 34.3564 23C34.3564 16.7957 29.3108 11.75 23.1064 11.75ZM23.1064 13.25C28.5001 13.25 32.8623 17.6063 32.8623 23C32.8623 28.3937 28.5001 32.7559 23.1064 32.7559C17.7128 32.7559 13.3564 28.3937 13.3564 23C13.3564 17.6063 17.7128 13.25 23.1064 13.25ZM23.0962 17.0044C22.898 17.0079 22.7093 17.0896 22.5713 17.2318C22.4332 17.374 22.357 17.565 22.3594 17.7632V18.3945C21.1484 18.6217 20.1123 19.4015 20.1123 20.7529C20.1123 21.6904 20.5349 22.4487 21.1025 22.8901C21.6701 23.3316 22.311 23.5273 22.8735 23.7148C23.436 23.9023 23.9216 24.0816 24.1978 24.2964C24.4739 24.5112 24.6064 24.6919 24.6064 25.2544C24.6064 26.5044 21.6123 26.5044 21.6123 25.2544C21.6145 25.1545 21.5968 25.0552 21.5601 24.9622C21.5234 24.8693 21.4685 24.7846 21.3986 24.7132C21.3288 24.6418 21.2453 24.585 21.1532 24.5463C21.0611 24.5075 20.9622 24.4876 20.8623 24.4876C20.7624 24.4876 20.6635 24.5075 20.5714 24.5463C20.4793 24.585 20.3959 24.6418 20.326 24.7132C20.2561 24.7846 20.2012 24.8693 20.1645 24.9622C20.1278 25.0552 20.1101 25.1545 20.1123 25.2544C20.1123 26.6048 21.1493 27.386 22.3594 27.6143V28.2427C22.3572 28.3426 22.3749 28.4419 22.4116 28.5348C22.4483 28.6278 22.5032 28.7124 22.5731 28.7839C22.6429 28.8553 22.7264 28.912 22.8185 28.9508C22.9106 28.9895 23.0095 29.0095 23.1094 29.0095C23.2093 29.0095 23.3082 28.9895 23.4003 28.9508C23.4924 28.912 23.5758 28.8553 23.6457 28.7839C23.7155 28.7124 23.7704 28.6278 23.8071 28.5348C23.8438 28.4419 23.8616 28.3426 23.8594 28.2427V27.6143C25.0697 27.3862 26.1079 26.6049 26.1079 25.2544C26.1079 24.3169 25.6838 23.5587 25.1162 23.1172C24.5486 22.6757 23.9077 22.4785 23.3452 22.291C22.7827 22.1035 22.2971 21.9257 22.021 21.7109C21.7448 21.4962 21.6123 21.3154 21.6123 20.7529C21.6123 19.5029 24.6064 19.5029 24.6064 20.7529C24.6064 20.952 24.6855 21.143 24.8263 21.2838C24.9671 21.4246 25.1581 21.5037 25.3572 21.5037C25.5563 21.5037 25.7472 21.4246 25.888 21.2838C26.0288 21.143 26.1079 20.952 26.1079 20.7529C26.1079 19.4035 25.0693 18.6245 23.8594 18.396V17.7632C23.8606 17.6628 23.8416 17.5633 23.8036 17.4704C23.7656 17.3775 23.7094 17.2932 23.6382 17.2224C23.567 17.1517 23.4824 17.0959 23.3893 17.0585C23.2962 17.021 23.1965 17.0026 23.0962 17.0044Z" fill="#7813EB"/>
</g>
<defs>
<clipPath id="clip0_710_35">
<rect width="24" height="24" fill="white" transform="translate(11.1064 11)"/>
</clipPath>
</defs>
</svg>
