<svg width="47" height="46" viewBox="0 0 47 46" fill="none" xmlns="http://www.w3.org/2000/svg">
<circle cx="23.2119" cy="23" r="23" fill="#FFA800" fill-opacity="0.1"/>
<g clip-path="url(#clip0_710_31)">
<path d="M16.5836 34.5149C16.3207 34.5149 16.0596 34.4328 15.8367 34.2717C15.4216 33.9709 15.2277 33.4537 15.3407 32.9548L16.8847 26.1535L11.6484 21.5615C11.2635 21.2255 11.1165 20.6934 11.2745 20.2065C11.4326 19.7205 11.8625 19.3764 12.3715 19.3294L19.2997 18.7004L22.0388 12.2902C22.2408 11.8193 22.7008 11.5151 23.2118 11.5151C23.7229 11.5151 24.1829 11.8193 24.3849 12.2891L27.124 18.7004L34.0511 19.3294C34.5612 19.3753 34.9911 19.7205 35.1492 20.2065C35.3072 20.6924 35.1611 21.2255 34.7762 21.5615L29.54 26.1526L31.0839 32.9537C31.1971 33.4537 31.003 33.9709 30.5881 34.2708C30.1741 34.5707 29.622 34.5938 29.186 34.3318L23.2118 30.7617L17.2377 34.3338C17.0357 34.4537 16.8107 34.5149 16.5836 34.5149ZM23.2118 29.2237C23.4389 29.2237 23.6638 29.2847 23.8659 29.4046L29.5041 32.7768L28.0469 26.3575C27.9429 25.9006 28.098 25.4236 28.451 25.1145L33.3952 20.7785L26.8539 20.1845C26.3829 20.1415 25.9779 19.8454 25.7939 19.4114L23.2118 13.3622L20.6267 19.4123C20.4447 19.8434 20.0396 20.1394 19.5698 20.1825L13.0276 20.7765L17.9716 25.1125C18.3257 25.4225 18.4806 25.8986 18.3757 26.3566L16.9196 32.7757L22.5578 29.4046C22.7597 29.2847 22.9848 29.2237 23.2118 29.2237ZM19.2468 18.8243C19.2468 18.8243 19.2468 18.8254 19.2457 18.8264L19.2468 18.8243ZM27.1749 18.8214L27.176 18.8234C27.176 18.8223 27.176 18.8223 27.1749 18.8214Z" fill="#FF7700"/>
</g>
<defs>
<clipPath id="clip0_710_31">
<rect width="24" height="24" fill="white" transform="translate(11.2119 11)"/>
</clipPath>
</defs>
</svg>
