<svg width="47" height="46" viewBox="0 0 47 46" fill="none" xmlns="http://www.w3.org/2000/svg">
<circle cx="23.2119" cy="23" r="23" fill="#377DFF" fill-opacity="0.1"/>
<path d="M23.227 15.6567C23.0026 15.6567 22.7874 15.5677 22.6287 15.4092C22.47 15.2508 22.3809 15.0359 22.3809 14.8119V11.8448C22.3809 11.6208 22.47 11.4059 22.6287 11.2474C22.7874 11.089 23.0026 11 23.227 11C23.4514 11 23.6666 11.089 23.8253 11.2474C23.984 11.4059 24.0731 11.6208 24.0731 11.8448V14.8119C24.0731 15.0359 23.984 15.2508 23.8253 15.4092C23.6666 15.5677 23.4514 15.6567 23.227 15.6567Z" fill="#216EFD"/>
<path d="M28.9795 18.1438C28.8119 18.1441 28.648 18.0947 28.5086 18.0019C28.3692 17.9091 28.2605 17.777 28.1963 17.6224C28.1322 17.4679 28.1154 17.2978 28.1482 17.1337C28.181 16.9696 28.2618 16.819 28.3804 16.7008L30.4822 14.6022C30.5609 14.5237 30.6543 14.4614 30.7571 14.4189C30.8599 14.3764 30.97 14.3545 31.0813 14.3545C31.1925 14.3545 31.3027 14.3764 31.4055 14.4189C31.5083 14.4614 31.6017 14.5237 31.6803 14.6022C31.759 14.6808 31.8214 14.774 31.864 14.8767C31.9066 14.9793 31.9285 15.0893 31.9285 15.2004C31.9285 15.3115 31.9066 15.4215 31.864 15.5241C31.8214 15.6267 31.759 15.72 31.6803 15.7985L29.5785 17.8971C29.4999 17.9756 29.4065 18.0379 29.3037 18.0802C29.2009 18.1226 29.0907 18.1442 28.9795 18.1438Z" fill="#216EFD"/>
<path d="M34.3661 23.8752H31.3911C31.1666 23.8752 30.9514 23.7862 30.7927 23.6278C30.6341 23.4693 30.5449 23.2544 30.5449 23.0304C30.5449 22.8063 30.6341 22.5914 30.7927 22.433C30.9514 22.2746 31.1666 22.1855 31.3911 22.1855H34.3661C34.5905 22.1855 34.8057 22.2746 34.9644 22.433C35.123 22.5914 35.2122 22.8063 35.2122 23.0304C35.2122 23.2544 35.123 23.4693 34.9644 23.6278C34.8057 23.7862 34.5905 23.8752 34.3661 23.8752Z" fill="#216EFD"/>
<path d="M15.0229 23.8752H12.058C11.8336 23.8752 11.6184 23.7862 11.4597 23.6278C11.3011 23.4693 11.2119 23.2544 11.2119 23.0304C11.2119 22.8063 11.3011 22.5914 11.4597 22.433C11.6184 22.2746 11.8336 22.1855 12.058 22.1855H15.0297C15.2541 22.1855 15.4693 22.2746 15.628 22.433C15.7867 22.5914 15.8758 22.8063 15.8758 23.0304C15.8758 23.2544 15.7867 23.4693 15.628 23.6278C15.4693 23.7862 15.2541 23.8752 15.0297 23.8752H15.0229Z" fill="#216EFD"/>
<path d="M17.4265 18.0259C17.3153 18.0263 17.2051 18.0047 17.1023 17.9624C16.9995 17.92 16.9061 17.8578 16.8275 17.7792L14.7257 15.6807C14.5713 15.5216 14.4857 15.3083 14.4873 15.0868C14.4889 14.8652 14.5776 14.6532 14.7343 14.4963C14.8909 14.3395 15.1031 14.2503 15.3249 14.2481C15.5468 14.2459 15.7606 14.3307 15.9204 14.4844L18.0222 16.583C18.101 16.6614 18.1635 16.7547 18.2062 16.8573C18.2489 16.9599 18.2708 17.07 18.2708 17.1811C18.2708 17.2922 18.2489 17.4023 18.2062 17.5049C18.1635 17.6075 18.101 17.7008 18.0222 17.7792C17.9442 17.8577 17.8514 17.9199 17.7492 17.9622C17.6469 18.0046 17.5373 18.0262 17.4265 18.0259Z" fill="#216EFD"/>
<path d="M26.8598 31.5227H19.5899V30.465C19.6155 28.8088 19.0919 27.1906 18.1007 25.8624C17.2503 24.7677 16.8334 23.3987 16.9296 22.0167C17.1124 19.0227 19.7455 16.5693 22.9236 16.4307C23.7996 16.3891 24.675 16.5238 25.4977 16.8268C26.3204 17.1299 27.0737 17.5951 27.7127 18.1947C28.2848 18.7305 28.7412 19.3774 29.0537 20.0956C29.3663 20.8139 29.5284 21.5884 29.5302 22.3716C29.5296 23.5647 29.1517 24.7272 28.4506 25.6934C27.4531 27.0183 26.8967 28.6221 26.8598 30.2792V31.5227ZM21.2652 29.8331H25.1811C25.3123 27.9833 25.9699 26.2095 27.0765 24.7202C27.5694 24.0396 27.8358 23.2216 27.838 22.3817C27.8366 21.8267 27.7211 21.2779 27.4987 20.7693C27.2763 20.2607 26.9518 19.8031 26.5451 19.4248C26.0711 18.9824 25.5128 18.6398 24.9034 18.4174C24.294 18.1951 23.6461 18.0975 22.9981 18.1305C20.6729 18.2319 18.7505 19.9891 18.6185 22.1316C18.5569 23.0982 18.8519 24.0539 19.4477 24.8182C20.5421 26.2708 21.1752 28.0176 21.2652 29.8331Z" fill="#216EFD"/>
<path d="M23.2258 35C22.262 34.9991 21.338 34.6164 20.6565 33.936C19.975 33.2555 19.5917 32.3329 19.5908 31.3706H21.2831C21.2831 31.8851 21.4878 32.3784 21.8521 32.7422C22.2164 33.106 22.7106 33.3103 23.2258 33.3103C23.7411 33.3103 24.2352 33.106 24.5995 32.7422C24.9639 32.3784 25.1685 31.8851 25.1685 31.3706H26.8608C26.8599 32.3329 26.4766 33.2555 25.7951 33.936C25.1137 34.6164 24.1896 34.9991 23.2258 35Z" fill="#216EFD"/>
</svg>
