<svg width="47" height="46" viewBox="0 0 47 46" fill="none" xmlns="http://www.w3.org/2000/svg">
<circle cx="23.7891" cy="23" r="23" fill="#1ACB34" fill-opacity="0.1"/>
<path fill-rule="evenodd" clip-rule="evenodd" d="M23.7891 11C17.1721 11 11.7891 16.383 11.7891 23C11.7891 29.617 17.1721 35 23.7891 35C30.4061 35 35.7891 29.617 35.7891 23C35.7891 16.383 30.4061 11 23.7891 11ZM23.7891 33.3244C18.0962 33.3244 13.4646 28.6929 13.4646 23C13.4646 17.3071 18.0962 12.6755 23.7891 12.6755C29.482 12.6755 34.1136 17.3071 34.1136 23C34.1136 28.6929 29.482 33.3244 23.7891 33.3244ZM23.8768 16.8492C21.4116 16.8492 19.7086 18.4287 19.8101 20.7075H21.4527C21.4527 19.4351 22.2562 18.4095 23.8083 18.4287C25.152 18.4287 26.0871 19.2514 26.0871 20.521C26.0871 21.6774 25.3432 22.316 24.5533 22.9942C23.6591 23.762 22.7059 24.5804 22.7059 26.2578H24.5185C24.5185 25.1468 25.2199 24.5076 25.971 23.8232C26.8366 23.0344 27.768 22.1856 27.768 20.4854C27.768 18.5247 26.2296 16.8519 23.8768 16.8519V16.8492ZM22.6757 27.2888H24.5377V29.1508H22.6757V27.2888Z" fill="#0DBD27"/>
</svg>
