<svg width="47" height="46" viewBox="0 0 47 46" fill="none" xmlns="http://www.w3.org/2000/svg">
<circle cx="23.8945" cy="23" r="23" fill="#0DBD27" fill-opacity="0.1"/>
<path d="M33.8936 21.75C33.4796 21.75 33.1436 22.086 33.1436 22.5C33.1436 23.553 33.1466 25.482 33.0986 26.184C33.0536 26.844 32.9666 27.273 32.8196 27.627C32.3876 28.668 31.5596 29.496 30.5186 29.928C30.0026 30.141 29.3456 30.222 28.0886 30.243C27.6776 30.249 27.3176 30.255 27.0206 30.288C26.3636 30.36 25.8176 30.675 25.4306 31.206C25.2566 31.443 25.0796 31.746 24.8756 32.088L24.3326 33.003C24.1406 33.33 23.6426 33.33 23.4506 33.003L22.9076 32.088C22.7036 31.746 22.5266 31.443 22.3526 31.206C21.9656 30.672 21.4166 30.36 20.7626 30.288C20.4656 30.255 20.1056 30.249 19.6946 30.243C18.4406 30.222 17.7806 30.141 17.2646 29.928C16.2236 29.496 15.3956 28.668 14.9636 27.627C14.8046 27.243 14.3666 27.063 13.9826 27.222C13.6046 27.378 13.4246 27.819 13.5806 28.2C14.1656 29.61 15.2846 30.729 16.6946 31.311C17.4986 31.644 18.4166 31.719 19.6706 31.74C20.1086 31.749 20.3876 31.752 20.6006 31.776C21.2156 31.845 21.2516 32.265 21.6206 32.853L22.1636 33.768C22.9376 35.076 24.8546 35.076 25.6286 33.768L26.1716 32.853C26.3876 32.487 26.5256 32.256 26.6486 32.088C26.9906 31.62 27.4406 31.752 28.1216 31.74C29.3756 31.719 30.2936 31.644 31.0976 31.311C32.5076 30.726 33.6266 29.607 34.2086 28.2C34.4426 27.633 34.5476 27.021 34.5956 26.286C34.6526 25.458 34.6466 23.661 34.6436 22.5C34.6436 22.086 34.3076 21.75 33.8936 21.75ZM14.6456 25.5C14.6456 23.85 14.6456 19.662 14.7356 18.738C14.8226 17.823 14.9906 17.244 15.2726 16.779C15.6236 16.206 16.1036 15.726 16.6766 15.375C17.1416 15.09 17.7206 14.925 18.6356 14.838C19.5596 14.751 20.7476 14.748 22.3976 14.748H25.3976C25.8116 14.748 26.1476 14.412 26.1476 13.998C26.1476 13.584 25.8116 13.248 25.3976 13.248H22.3946C20.7716 13.248 19.5026 13.248 18.4916 13.344C17.4686 13.44 16.6286 13.644 15.8906 14.097C15.1166 14.571 14.4656 15.222 13.9916 15.996C13.5386 16.734 13.3376 17.574 13.2386 18.597C13.1426 19.608 13.1426 23.88 13.1426 25.5C13.1426 25.914 13.4786 26.25 13.8926 26.25C14.3066 26.25 14.6456 25.914 14.6456 25.5ZM30.8936 20.751C32.9606 20.751 34.6436 19.068 34.6436 17.001C34.6436 14.934 32.9606 13.251 30.8936 13.251C28.8266 13.251 27.1436 14.934 27.1436 17.001C27.1436 19.068 28.8266 20.751 30.8936 20.751ZM30.8936 14.751C32.1356 14.751 33.1436 15.759 33.1436 17.001C33.1436 18.243 32.1356 19.251 30.8936 19.251C29.6516 19.251 28.6436 18.243 28.6436 17.001C28.6436 15.759 29.6546 14.751 30.8936 14.751Z" fill="#0DBD27"/>
</svg>
