<svg width="46" height="46" viewBox="0 0 46 46" fill="none" xmlns="http://www.w3.org/2000/svg">
<circle cx="23" cy="23" r="23" fill="#F54602" fill-opacity="0.1"/>
<path d="M31.7482 31.1119L28.8203 28.184C28.6006 27.9643 28.2445 27.9643 28.0247 28.184C27.805 28.4037 27.805 28.7598 28.0247 28.9795L29.9924 30.9472H18.9042C16.8683 30.9472 15.2119 29.2908 15.2119 27.2549C15.2119 25.2189 16.8683 23.5625 18.9042 23.5625H20.5118H25.488H27.0956C29.7519 23.5625 31.9129 21.4015 31.9129 18.7452C31.9129 16.089 29.7519 13.9279 27.0956 13.9279H16.0074L17.9751 11.9603C18.1948 11.7406 18.1948 11.3844 17.9751 11.1647C17.7554 10.9451 17.3993 10.9451 17.1796 11.1647L14.2517 14.0927C14.032 14.3124 14.032 14.6685 14.2517 14.8882L17.1796 17.8161C17.2894 17.9259 17.4334 17.9809 17.5773 17.9809C17.7213 17.9809 17.8652 17.9259 17.9751 17.8161C18.1948 17.5964 18.1948 17.2403 17.9751 17.0206L16.0074 15.0529H27.0956C29.1315 15.0529 30.7879 16.7093 30.7879 18.7452C30.7879 20.7812 29.1316 22.4375 27.0956 22.4375H25.488H20.5118H18.9042C16.248 22.4375 14.0869 24.5986 14.0869 27.2548C14.0869 29.9111 16.248 32.0721 18.9042 32.0721H29.9924L28.0247 34.0398C27.805 34.2595 27.805 34.6156 28.0247 34.8353C28.1346 34.9451 28.2785 35.0001 28.4225 35.0001C28.5664 35.0001 28.7104 34.9451 28.8202 34.8353L31.7481 31.9074C31.9678 31.6877 31.9678 31.3315 31.7482 31.1119Z" fill="#F54602" stroke="#F54602" stroke-width="0.4"/>
</svg>
