<svg width="47" height="46" viewBox="0 0 47 46" fill="none" xmlns="http://www.w3.org/2000/svg">
<circle cx="23.7891" cy="23" r="23" fill="#0298F5" fill-opacity="0.1"/>
<path d="M23.7321 12.25H23.8469C26.1553 12.25 27.9643 12.25 29.3758 12.4398C30.8205 12.634 31.9606 13.0393 32.8554 13.9341C33.7502 14.829 34.1555 15.969 34.3498 17.4137C34.5394 18.8252 34.5395 20.6342 34.5395 22.9426V23.0574C34.5395 25.3658 34.5394 27.1748 34.3498 28.5863C34.1555 30.031 33.7502 31.1711 32.8554 32.0659C32.027 32.8943 30.9876 33.3038 29.6889 33.514C28.4121 33.7207 26.806 33.7458 24.7909 33.7494C24.3767 33.7502 24.0403 33.415 24.0395 33.0008C24.0388 32.5866 24.3739 32.2502 24.7882 32.2494C26.8281 32.2457 28.3111 32.2175 29.4492 32.0333C30.5651 31.8526 31.2661 31.5338 31.7947 31.0052C32.3644 30.4355 32.6912 29.6648 32.8631 28.3864C33.0379 27.0864 33.0395 25.3782 33.0395 23C33.0395 20.6218 33.0379 18.9136 32.8631 17.6136C32.6912 16.3352 32.3644 15.5645 31.7947 14.9948C31.2251 14.4251 30.4543 14.0983 29.1758 13.9264C27.8759 13.7516 26.1677 13.75 23.7895 13.75C21.4112 13.75 19.703 13.7516 18.403 13.9264C17.1246 14.0983 16.3539 14.4251 15.7843 14.9948C15.2556 15.5234 14.9369 16.2243 14.7562 17.3403C14.572 18.4783 14.5437 19.9614 14.54 22.0014C14.5393 22.4156 14.2029 22.7507 13.7887 22.75C13.3745 22.7493 13.0393 22.4129 13.04 21.9986C13.0437 19.9835 13.0688 18.3774 13.2755 17.1006C13.4857 15.8019 13.8952 14.7626 14.7236 13.9341C15.6184 13.0393 16.7584 12.634 18.2032 12.4398C19.6147 12.25 21.4237 12.25 23.7321 12.25Z" fill="#0298F5"/>
<path d="M24.289 18C24.289 17.5858 24.6248 17.25 25.039 17.25H28.789C29.2032 17.25 29.539 17.5858 29.539 18V21.75C29.539 22.1642 29.2032 22.5 28.789 22.5C28.3748 22.5 28.039 22.1642 28.039 21.75V19.8107L24.3193 23.5303C24.0264 23.8232 23.5516 23.8232 23.2587 23.5303C22.9658 23.2374 22.9658 22.7626 23.2587 22.4697L26.9783 18.75H25.039C24.6248 18.75 24.289 18.4142 24.289 18Z" fill="#0298F5"/>
<path fill-rule="evenodd" clip-rule="evenodd" d="M17.7371 24.25C16.8386 24.25 16.0894 24.2499 15.4946 24.3299C14.8668 24.4143 14.3 24.6 13.8445 25.0555C13.3891 25.5109 13.2034 26.0777 13.119 26.7055C13.039 27.3003 13.039 28.0495 13.0391 28.948V29.052C13.039 29.9505 13.039 30.6997 13.119 31.2945C13.2034 31.9223 13.3891 32.4891 13.8445 32.9445C14.3 33.4 14.8668 33.5857 15.4946 33.6701C16.0894 33.7501 16.8386 33.75 17.737 33.75H17.8411C18.7395 33.75 19.4888 33.7501 20.0835 33.6701C20.7113 33.5857 21.2781 33.4 21.7336 32.9445C22.1891 32.4891 22.3748 31.9223 22.4592 31.2945C22.5392 30.6997 22.5391 29.9505 22.5391 29.052V28.948C22.5391 28.0495 22.5392 27.3003 22.4592 26.7055C22.3748 26.0777 22.1891 25.5109 21.7336 25.0555C21.2781 24.6 20.7113 24.4143 20.0835 24.3299C19.4888 24.2499 18.7395 24.25 17.8411 24.25H17.7371ZM14.9052 26.1161C15.0355 25.9858 15.233 25.8786 15.6945 25.8165C16.1775 25.7516 16.8251 25.75 17.7891 25.75C18.7531 25.75 19.4006 25.7516 19.8837 25.8165C20.3451 25.8786 20.5426 25.9858 20.673 26.1161C20.8033 26.2464 20.9105 26.4439 20.9725 26.9054C21.0375 27.3884 21.0391 28.036 21.0391 29C21.0391 29.964 21.0375 30.6116 20.9725 31.0946C20.9105 31.5561 20.8033 31.7536 20.673 31.8839C20.5426 32.0142 20.3451 32.1214 19.8837 32.1835C19.4006 32.2484 18.7531 32.25 17.7891 32.25C16.8251 32.25 16.1775 32.2484 15.6945 32.1835C15.233 32.1214 15.0355 32.0142 14.9052 31.8839C14.7749 31.7536 14.6676 31.5561 14.6056 31.0946C14.5407 30.6116 14.5391 29.964 14.5391 29C14.5391 28.036 14.5407 27.3884 14.6056 26.9054C14.6676 26.4439 14.7749 26.2464 14.9052 26.1161Z" fill="#0298F5"/>
</svg>
