<svg width="14" height="22" viewBox="0 0 14 22" fill="none" xmlns="http://www.w3.org/2000/svg">
<path d="M13.1035 4.88529H13.2535V4.73529V1.16236V1.01236H13.1035H9.54182C9.37364 1.0056 8.37467 0.988048 7.29255 1.4246C6.19835 1.86602 5.01861 2.77309 4.53335 4.61097C4.4989 4.70914 4.22766 5.5411 4.21356 7.3791L1.10307 7.38829L0.953516 7.38873V7.53829V11.2858V11.4363L1.10396 11.4358L4.21724 11.4266V21.1602V21.3102H4.36724H9.35245H9.50245V21.1602V11.4346H12.652H12.802V11.2846V7.52743V7.37743H12.652H9.50245V6.34524C9.50245 5.99548 9.57686 5.6341 9.80707 5.3616C10.0332 5.09395 10.4327 4.88529 11.1418 4.88529H13.1035ZM9.50322 2.1345L12.1286 2.13527V3.76232H11.1418C10.1433 3.76232 9.44602 4.08923 9.00007 4.5877C8.55706 5.08287 8.37755 5.72995 8.37755 6.34524V8.35039V8.50039H8.52755H11.6771V10.3117H8.52755H8.37755V10.4617V20.1872H5.34213V10.4508V10.3003L5.19169 10.3008L2.07841 10.31V8.50839L5.20103 8.4992L5.35364 8.49875L5.35055 8.34617L5.3421 7.92765L5.3421 7.92764C5.30048 5.87714 5.58752 5.00303 5.60557 4.94808C5.60589 4.94711 5.60612 4.9464 5.60627 4.94593L5.60646 4.946L5.60845 4.93845C5.99933 3.45415 6.93551 2.7559 7.79166 2.42469C8.65456 2.09087 9.43693 2.13076 9.49423 2.13422L9.49421 2.13449L9.50322 2.1345Z" fill="#222631" stroke="#222631" stroke-width="0.3"/>
</svg>
