<svg width="525" height="272" viewBox="0 0 525 272" fill="none" xmlns="http://www.w3.org/2000/svg">
<path d="M265.719 272C405.463 272 518.748 264.141 518.748 254.446C518.748 244.751 405.463 236.892 265.719 236.892C125.974 236.892 12.6895 244.751 12.6895 254.446C12.6895 264.141 125.974 272 265.719 272Z" fill="#CCCCCE" fill-opacity="0.21"/>
<path d="M412.556 250.916H121.579C106.853 250.916 94.916 240.86 94.916 228.456V65.2725H439.219V228.456C439.219 240.86 427.282 250.916 412.556 250.916Z" fill="#83A9FE"/>
<path d="M307.831 157.956C307.945 179.208 299.845 199.28 285.03 214.465C270.236 229.63 250.446 238.194 229.308 238.586C228.81 238.593 228.312 238.599 227.807 238.599H138.355L145.614 227.619L138.355 215.342H227.807C228.164 215.342 228.521 215.342 228.877 215.336C243.887 215.059 257.934 208.978 268.438 198.207C278.956 187.422 284.707 173.175 284.626 158.084C284.546 142.912 278.606 128.672 267.893 118.002C257.422 107.561 243.571 101.717 228.803 101.46L229.968 106.455L206.838 93.7328L221.942 72.0483L223.403 78.3114C224.871 78.2304 226.346 78.1832 227.807 78.1832C249.126 78.1832 269.172 86.4641 284.256 101.501C299.346 116.538 307.716 136.589 307.831 157.949V157.956Z" fill="#FFCC44"/>
<path d="M340.86 226.465L321.224 208.796V214.829H291.38C290.35 215.997 289.293 217.138 288.202 218.265C279.926 226.748 270.256 233.396 259.705 237.992L259.61 238.093H321.218V244.127L340.853 226.465H340.86Z" fill="#F36967"/>
<path d="M170.926 158.334C170.926 131.749 189.242 109.383 213.881 103.222L201.033 95.4062L212.689 80.1333C175.997 87.1522 148.173 119.54 148.173 158.334C148.173 177.656 155.082 195.392 166.543 209.194H202.373C183.747 199.873 170.92 180.578 170.92 158.334H170.926Z" fill="#F36967"/>
<path d="M180.098 168.106V148.082H190.124C191.033 144.6 192.414 141.306 194.178 138.276L187.087 131.169L201.215 117.01L208.305 124.116C211.335 122.341 214.615 120.965 218.089 120.054V110.004H238.069V120.054C241.543 120.965 244.829 122.348 247.853 124.116L254.943 117.01L269.071 131.169L261.98 138.276C263.751 141.313 265.125 144.6 266.034 148.082H276.06V168.106H266.034C265.125 171.589 263.744 174.882 261.973 177.912L269.064 185.019L254.937 199.178L247.846 192.072C244.816 193.847 241.536 195.224 238.062 196.135V206.184H218.083V196.135C214.608 195.224 211.322 193.84 208.299 192.072L201.201 199.178L187.074 185.019L194.171 177.912C192.4 174.875 191.026 171.589 190.117 168.106H180.091H180.098Z" fill="#DFDFDF"/>
<path d="M228.089 180.254C240.302 180.254 250.203 170.331 250.203 158.091C250.203 145.85 240.302 135.927 228.089 135.927C215.876 135.927 205.976 145.85 205.976 158.091C205.976 170.331 215.876 180.254 228.089 180.254Z" fill="white"/>
<path d="M322.268 28.8818V19.2308H317.433C316.995 17.5503 316.329 15.9643 315.48 14.5065L318.901 11.078L312.093 4.25485L308.673 7.68332C307.211 6.8262 305.629 6.16481 303.959 5.72613V0.880371H294.33V5.72613C292.653 6.16481 291.07 6.83295 289.616 7.68332L286.195 4.25485L279.387 11.078L282.808 14.5065C281.953 15.971 281.293 17.5571 280.855 19.2308H276.021V28.8818H280.855C281.293 30.5623 281.96 32.1483 282.808 33.6061L279.387 37.0346L286.195 43.8578L289.616 40.4293C291.077 41.2864 292.66 41.9478 294.33 42.3865V47.2323H303.959V42.3865C305.636 41.9478 307.218 41.2797 308.673 40.4293L312.093 43.8578L318.901 37.0346L315.48 33.6061C316.336 32.1416 316.995 30.5556 317.433 28.8818H322.268Z" fill="#DFDFDF"/>
<path d="M299.144 34.7399C305.027 34.7399 309.797 29.9598 309.797 24.0631C309.797 18.1664 305.027 13.3862 299.144 13.3862C293.261 13.3862 288.491 18.1664 288.491 24.0631C288.491 29.9598 293.261 34.7399 299.144 34.7399Z" fill="white"/>
<path d="M46.4663 136.346V126.695H41.6314C41.1937 125.014 40.5271 123.428 39.6786 121.97L43.0994 118.542L36.2915 111.719L32.8708 115.147C31.4096 114.29 29.8271 113.629 28.1571 113.19V108.344H18.5279V113.19C16.8512 113.629 15.2687 114.297 13.8142 115.147L10.3935 111.719L3.58563 118.542L7.00639 121.97C6.1512 123.435 5.49129 125.021 5.05359 126.695H0.21875V136.346H5.05359C5.49129 138.026 6.15793 139.612 7.00639 141.07L3.58563 144.498L10.3935 151.322L13.8142 147.893C15.2755 148.75 16.8579 149.412 18.5279 149.85V154.696H28.1571V149.85C29.8339 149.412 31.4163 148.744 32.8708 147.893L36.2915 151.322L43.0994 144.498L39.6786 141.07C40.5338 139.605 41.1937 138.019 41.6314 136.346H46.4663Z" fill="#DFDFDF"/>
<path d="M23.3423 142.197C29.2257 142.197 33.9951 137.417 33.9951 131.52C33.9951 125.623 29.2257 120.843 23.3423 120.843C17.4589 120.843 12.6895 125.623 12.6895 131.52C12.6895 137.417 17.4589 142.197 23.3423 142.197Z" fill="white"/>
<path d="M524.218 149.972V140.321H519.383C518.946 138.64 518.279 137.054 517.431 135.596L520.851 132.168L514.043 125.345L510.623 128.773C509.162 127.916 507.579 127.255 505.909 126.816V121.97H496.28V126.816C494.603 127.255 493.021 127.923 491.566 128.773L488.145 125.345L481.338 132.168L484.758 135.596C483.903 137.061 483.243 138.647 482.806 140.321H477.971V149.972H482.806C483.243 151.652 483.91 153.238 484.758 154.696L481.338 158.124L488.145 164.948L491.566 161.519C493.027 162.376 494.61 163.038 496.28 163.476V168.322H505.909V163.476C507.586 163.038 509.168 162.37 510.623 161.519L514.043 164.948L520.851 158.124L517.431 154.696C518.286 153.231 518.946 151.645 519.383 149.972H524.218Z" fill="#DFDFDF"/>
<path d="M501.095 155.823C506.979 155.823 511.748 151.043 511.748 145.146C511.748 139.249 506.979 134.469 501.095 134.469C495.212 134.469 490.442 139.249 490.442 145.146C490.442 151.043 495.212 155.823 501.095 155.823Z" fill="white"/>
<path d="M439.219 65.2722H94.916V46.5641C94.916 34.1595 106.853 24.1035 121.579 24.1035H412.556C427.282 24.1035 439.219 34.1595 439.219 46.5641V65.2722Z" fill="#6B9EE8"/>
<path d="M122.794 54.9732C128.461 54.9732 133.056 50.3682 133.056 44.6878C133.056 39.0073 128.461 34.4023 122.794 34.4023C117.126 34.4023 112.531 39.0073 112.531 44.6878C112.531 50.3682 117.126 54.9732 122.794 54.9732Z" fill="#83A9FE"/>
<path d="M153.574 54.9732C159.241 54.9732 163.836 50.3682 163.836 44.6878C163.836 39.0073 159.241 34.4023 153.574 34.4023C147.906 34.4023 143.312 39.0073 143.312 44.6878C143.312 50.3682 147.906 54.9732 153.574 54.9732Z" fill="#83A9FE"/>
<path d="M184.36 54.9732C190.028 54.9732 194.622 50.3682 194.622 44.6878C194.622 39.0073 190.028 34.4023 184.36 34.4023C178.692 34.4023 174.098 39.0073 174.098 44.6878C174.098 50.3682 178.692 54.9732 184.36 54.9732Z" fill="#83A9FE"/>
<path d="M411.163 54.9732H325.118C319.765 54.9732 315.422 50.6201 315.422 45.2547V44.1209C315.422 38.7554 319.765 34.4023 325.118 34.4023H411.163C416.516 34.4023 420.859 38.7554 420.859 44.1209V45.2547C420.859 50.6201 416.516 54.9732 411.163 54.9732Z" fill="#83A9FE"/>
<path d="M468.585 214.222C468.585 214.222 460.774 202.654 461.501 192.564C461.501 192.564 472.039 200.71 473.494 214.222H468.592H468.585Z" fill="#5EEA6E"/>
<path d="M474.383 216.483C474.383 216.483 468.814 203.916 471.393 194.076C471.393 194.076 480.281 203.673 479.217 217.212L474.383 216.483Z" fill="#52DB5B"/>
<path d="M478.888 216.26C478.888 216.26 472.807 198.18 478.201 185.255C478.201 185.255 489.635 199.88 485.851 218.109L478.888 216.26Z" fill="#5EEA6E"/>
<path d="M484.874 216.726C484.874 216.726 484.315 197.849 493.318 186.652C493.318 186.652 500.052 203.457 491.049 220.154L484.874 216.732V216.726Z" fill="#52DB5B"/>
<path d="M490.369 250.916H470.363C467.211 250.916 464.652 248.351 464.652 245.193V214.229H496.079V245.193C496.079 248.351 493.52 250.916 490.369 250.916Z" fill="#DFDFDF"/>
<path d="M35.497 214.222C35.497 214.222 27.6858 202.654 28.413 192.564C28.413 192.564 38.9514 200.71 40.4059 214.222H35.5037H35.497Z" fill="#5EEA6E"/>
<path d="M41.2946 216.483C41.2946 216.483 35.7258 203.916 38.3048 194.076C38.3048 194.076 47.1934 203.673 46.1295 217.212L41.2879 216.483H41.2946Z" fill="#52DB5B"/>
<path d="M45.7999 216.26C45.7999 216.26 39.7193 198.18 45.1131 185.255C45.1131 185.255 56.547 199.88 52.7626 218.109L45.7999 216.26Z" fill="#5EEA6E"/>
<path d="M51.7861 216.726C51.7861 216.726 51.2272 197.849 60.2303 186.652C60.2303 186.652 66.964 203.457 57.961 220.154L51.7861 216.732V216.726Z" fill="#52DB5B"/>
<path d="M57.2807 250.916H37.2747C34.1233 250.916 31.5645 248.351 31.5645 245.193V214.229H62.9909V245.193C62.9909 248.351 60.4321 250.916 57.2807 250.916Z" fill="#DFDFDF"/>
<path d="M126.712 124.65C126.329 124.36 125.904 124.15 125.46 124.036C125.803 123.023 127.514 121.296 129.069 120.621C131.022 119.77 133.998 116.146 134.901 115.809C135.689 115.512 135.453 116.814 134.719 117.847C133.769 119.17 132.47 120.992 132.47 120.992H132.625C133.157 120.992 133.628 121.35 133.756 121.869C133.823 122.126 133.891 122.416 133.951 122.733C134.133 123.691 133.433 124.177 131.588 126.101C129.743 128.024 128.315 127.127 128.315 127.127C128.187 126.263 127.736 125.419 126.719 124.656L126.712 124.65Z" fill="#FFB75C"/>
<path d="M124.746 127.416C125.339 128.334 125.662 129.225 125.837 129.92C125.837 129.92 128.241 129.239 128.342 128.058C128.369 127.747 128.362 127.43 128.315 127.12C128.187 126.256 127.736 125.412 126.719 124.649C126.335 124.359 125.911 124.15 125.466 124.035C124.409 123.745 123.251 123.988 122.355 124.987C122.376 125 122.396 125 122.416 125.014C123.116 125.493 124.005 126.256 124.753 127.416H124.746ZM126.221 128.206C126.221 127.923 126.45 127.686 126.739 127.686C127.029 127.686 127.258 127.916 127.258 128.206C127.258 128.496 127.029 128.726 126.739 128.726C126.45 128.726 126.221 128.496 126.221 128.206Z" fill="white"/>
<path d="M94.4845 94.7582C93.4138 91.3163 93.1176 90.3917 96.1814 87.0239C96.1814 87.0239 97.5484 87.6921 97.2858 92.6121C99.0971 93.3545 98.848 96.486 98.4574 97.7683C96.7807 101.15 95.5552 98.2002 94.4845 94.7582Z" fill="#FFB75C"/>
<path d="M86.3301 104.78V103.174C88.1549 103.113 90.0269 102.52 90.4646 101.831C91.2255 100.623 92.5319 98.8684 91.4006 98.18C90.2693 97.4916 89.7306 96.4522 89.7037 94.873C89.6768 93.2937 90.7138 92.8483 91.6498 93.9079C92.5858 94.9675 94.9762 98.3487 93.9123 99.7255C93.4005 100.394 93.515 101.548 94.0066 102.594L93.515 105.975C91.2255 105.091 88.7946 104.565 86.3368 104.767L86.3301 104.78Z" fill="#FFB75C"/>
<path d="M85.8115 106.596L86.33 104.788C88.7946 104.578 91.2255 105.112 93.5082 105.996C94.5317 106.394 95.5351 106.859 96.4913 107.366C97.3734 107.831 97.3599 109.735 97.4744 110.632C95.5889 109.593 93.5823 108.675 91.7978 108.155C86.4782 106.596 85.8183 106.596 85.8183 106.596H85.8115Z" fill="white"/>
<path d="M105.151 150.923C93.6363 147.596 80.4179 147.448 80.4179 147.448C80.4179 147.448 80.3371 147.988 80.2092 148.906C80.162 149.209 80.1149 149.553 80.0677 149.938C77.9668 163.989 78.5863 178.533 78.3237 192.733C78.2294 197.964 74.977 204.375 75.7649 215.032C76.5527 225.688 76.0612 239.058 74.2902 244.606C72.5192 250.153 86.4716 248.527 90.9764 247.636C90.1617 250.599 92.303 250.896 98.8011 250.896C105.299 250.896 114.895 251.335 114.45 248.527C114.013 245.719 103.872 245.686 102.262 242.635C99.6697 237.722 102.538 227.997 102.545 221.936C102.552 216.064 104.673 209.903 105.434 204.058C106.585 195.183 106.956 186.254 106.801 177.312C106.72 172.716 106.511 168.12 106.201 163.531C105.986 160.325 106.632 153.583 105.144 150.93L105.151 150.923ZM91.2795 196.283C91.037 196.358 90.7744 196.223 90.7004 195.973C89.9394 193.307 86.2224 179.357 88.5052 168.518C88.559 168.268 88.8082 168.106 89.0641 168.167C89.3065 168.221 89.4613 168.464 89.4075 168.707C87.1584 179.343 90.8418 193.118 91.5825 195.716C91.6498 195.959 91.5151 196.209 91.2795 196.283ZM91.6162 243.047C89.9327 242.851 87.825 242.406 85.576 241.366C85.2729 241.225 84.9767 241.083 84.7006 240.934C84.0339 240.583 83.6568 239.861 83.7578 239.119C84.6534 232.606 89.0237 201.446 91.2727 196.283C91.1987 199.833 89.8452 207.925 89.8452 207.925C89.8452 207.925 90.1415 212.17 91.1246 219.176C92.1077 226.181 91.6162 243.054 91.6162 243.054V243.047Z" fill="#222D4D"/>
<path d="M79.8253 140.631C80.0139 140.604 80.1418 140.435 80.1216 140.246C79.8388 138.181 78.391 127.241 78.7344 123.239C78.7479 123.057 78.6132 122.895 78.4314 122.875C78.2361 122.848 78.0611 122.996 78.0476 123.192C77.6974 127.329 79.1519 138.228 79.4415 140.341C79.4617 140.476 79.556 140.577 79.6772 140.618C74.344 140.098 76.7008 139.254 73.8457 134.341C70.9637 129.381 72.371 123.023 73.408 117.253C74.4383 111.476 78.2025 109.262 80.4987 108.81C82.7814 108.371 85.7982 106.596 85.8116 106.589C85.8116 106.589 86.4715 106.589 91.7912 108.142C93.5757 108.661 95.5891 109.579 97.4678 110.618C101.192 112.677 104.41 115.221 104.41 116.207C104.41 117.685 109.434 133.174 109.434 133.174C113.333 130.454 117.238 127.727 121.144 125.007C121.501 124.758 121.972 124.751 122.342 124.98C122.363 124.994 122.383 124.994 122.403 125.007C123.103 125.486 123.992 126.249 124.74 127.403C125.332 128.321 125.655 129.212 125.83 129.907C125.931 130.298 125.81 130.71 125.507 130.987C121.352 134.847 117.204 138.708 113.05 142.568C111.043 144.431 108.296 145.254 105.609 144.802C104.781 144.188 103.609 143.128 102.895 142.386C100.121 139.504 98.9963 136.393 98.323 134.53L97.8516 133.228C96.3702 129.131 94.5319 124.035 92.5319 118.13C92.4713 117.948 92.2761 117.853 92.0942 117.914C91.9124 117.975 91.8181 118.171 91.8788 118.353C93.8787 124.265 95.7237 129.354 97.2052 133.457L97.6765 134.753C98.3701 136.676 99.5283 139.882 102.404 142.865C103.144 143.634 104.161 144.505 105.023 145.139L105.158 150.91C93.643 147.583 80.4246 147.434 80.4246 147.434C80.4246 147.434 80.4246 146.84 79.8388 140.624L79.8253 140.631Z" fill="#FFA417"/>
<path d="M126.739 128.726C127.026 128.726 127.258 128.493 127.258 128.206C127.258 127.919 127.026 127.687 126.739 127.687C126.453 127.687 126.221 127.919 126.221 128.206C126.221 128.493 126.453 128.726 126.739 128.726Z" fill="#FFA417"/>
<path d="M102.397 142.872C99.5214 139.889 98.3632 136.683 97.6696 134.76L97.1983 133.464C95.7168 129.36 93.8718 124.272 91.8718 118.353C91.8112 118.171 91.9055 117.975 92.0873 117.914C92.2691 117.853 92.4644 117.955 92.525 118.13C94.5249 124.035 96.3633 129.124 97.8514 133.228L98.3228 134.53C98.9962 136.393 100.121 139.511 102.895 142.393C103.609 143.135 104.78 144.195 105.609 144.809C105.555 144.809 105.508 144.795 105.454 144.789L105.003 144.708V145.153C104.154 144.519 103.131 143.648 102.39 142.879L102.397 142.872Z" fill="#D67E09"/>
<path d="M79.4411 140.341C79.1516 138.228 77.6971 127.329 78.0472 123.192C78.0607 122.996 78.2358 122.854 78.431 122.874C78.6129 122.895 78.7475 123.057 78.7341 123.239C78.3906 127.234 79.8451 138.181 80.1212 140.246C80.1482 140.435 80.0135 140.604 79.8249 140.631C79.7711 140.638 79.7239 140.631 79.6768 140.618C79.5556 140.577 79.4613 140.476 79.4411 140.341Z" fill="#D67E09"/>
<path d="M91.2796 196.276C91.0372 196.351 90.7746 196.216 90.7005 195.966C89.9396 193.3 86.2226 179.35 88.5053 168.511C88.5592 168.261 88.8084 168.1 89.0642 168.16C89.3067 168.214 89.4615 168.457 89.4077 168.7C87.1586 179.337 90.8419 193.111 91.5827 195.71C91.65 195.952 91.5153 196.202 91.2796 196.276Z" fill="#141F35"/>
<path d="M93.9052 99.7392C94.9624 98.3557 92.5719 94.9812 91.6427 93.9216C90.7067 92.862 89.6764 93.3074 89.6966 94.8867C89.7235 96.466 90.2622 97.4985 91.3935 98.1937C92.5248 98.8888 91.2184 100.637 90.4575 101.845C90.0198 102.533 88.1478 103.127 86.323 103.188C84.9425 103.235 83.5891 102.985 82.9022 102.243C81.2996 100.515 77.0977 91.2153 78.202 88.8126C79.3064 86.41 78.128 85.6339 81.8585 84.8915C85.589 84.1491 92.1948 81.4158 92.2689 79.1211C96.996 78.5677 99.2451 83.6699 96.1812 87.0376C93.1173 90.4054 93.4136 91.33 94.4843 94.772C95.555 98.2139 96.7872 101.163 98.4572 97.782C98.4572 97.782 99.6154 100.299 99.7636 102.297C99.9117 104.295 98.6323 105.118 96.5381 104.855C95.4607 104.72 94.518 103.735 93.9995 102.628C93.5079 101.582 93.3934 100.428 93.9052 99.7594V99.7392Z" fill="#22202B"/>
<path d="M379.161 115.727C379.155 115.95 379.155 116.179 379.161 116.422C379.161 116.2 379.181 115.552 379.195 115.214C379.181 115.383 379.175 115.545 379.168 115.727H379.161Z" fill="#FDB784"/>
<path d="M378.529 148.582C378.529 148.582 384.152 156.903 391.041 152.482C390.428 151.477 389.741 150.147 389.209 148.582H378.529Z" fill="#FEBA8D"/>
<path d="M425.517 98.3961C423.544 96.7089 425.456 92.2276 425.113 88.9678C424.763 85.7081 420.695 79.418 412.622 80.0052C407.181 80.3966 405.544 83.3257 405.046 85.1952C406.292 85.7081 408.777 87.0646 408.117 89.5752C407.538 87.5978 404.837 86.7542 404.837 86.7542C404.837 86.7542 402.164 85.4111 400.669 86.2885C399.174 87.1591 396.353 86.8689 395.484 86.3492C394.615 85.8296 391.302 85.2424 390.898 87.2198C390.488 89.204 390.434 89.7844 388.05 90.4188C385.666 91.06 384.798 92.1668 385.491 94.2658C386.185 96.3647 387.525 97.2353 387.175 99.3882C386.831 101.534 387.747 102.587 387.754 102.594C387.572 97.0598 388.67 94.367 389.969 93.7393C391.538 92.9835 394.151 90.4188 394.151 90.4188C394.151 90.4188 395.309 94.7854 398.104 94.3805C400.79 93.9891 402.804 94.0026 403.78 97.7617C403.874 98.1262 403.996 98.4906 404.137 98.8483C406.359 104.598 406.359 104.22 406.359 104.22V100.846C406.359 100.846 408.305 99.4017 409.841 101.46C411.234 103.323 410.305 105.881 407.544 106.117C407.544 106.117 407.12 109.181 405.612 111.273C405.841 111.341 406.029 111.408 406.157 111.469C407.221 111.955 408.097 112.832 408.878 113.642C409.827 114.634 410.999 115.498 412.393 114.816C414.655 113.71 415.941 113.595 420.123 114.114C424.305 114.641 426.917 113.71 428.837 108.702C430.756 103.694 427.503 100.083 425.523 98.3961H425.517Z" fill="#182430"/>
<path d="M395.606 246.077C394.872 243.634 391.498 242.001 391.498 242.001H390.724C390.724 242.001 388.401 244.41 386.078 245.881C383.755 247.353 382.866 249.256 383.404 250.228C383.943 251.2 394.515 250.849 394.515 250.849L398.158 246.455L398.32 248.709C398.34 248.966 398.562 249.161 398.818 249.141C399.054 249.121 399.242 248.918 399.242 248.682V246.462C399.242 246.462 400.246 243.789 398.778 240.961C399.242 242.203 397.848 244.606 395.599 246.084L395.606 246.077Z" fill="#2F2530"/>
<path d="M393.444 238.558C393.572 239.274 393.357 240.003 392.865 240.536L391.505 242.007C391.505 242.007 394.872 243.64 395.612 246.083C397.862 244.612 399.255 242.203 398.791 240.961C398.326 239.719 398.245 240.07 398.245 238.167C398.245 236.648 398.885 230.23 399.148 227.706H391.512L393.451 238.558H393.444Z" fill="#FDB98C"/>
<path d="M413.167 246.077C412.433 243.634 409.06 242.001 409.06 242.001H408.285C408.285 242.001 405.962 244.41 403.639 245.881C401.316 247.353 400.427 249.256 400.966 250.228C401.505 251.2 412.083 250.849 412.083 250.849L415.726 246.455L415.888 248.709C415.908 248.966 416.13 249.161 416.386 249.141C416.622 249.121 416.81 248.918 416.81 248.682V246.462C416.81 246.462 417.814 243.789 416.346 240.961C416.81 242.203 415.417 244.606 413.167 246.084V246.077Z" fill="#2F2530"/>
<path d="M411.006 238.558C411.134 239.274 410.918 240.003 410.427 240.536L409.066 242.007C409.066 242.007 412.433 243.64 413.174 246.083C415.423 244.612 416.817 242.203 416.352 240.961C415.888 239.719 415.807 240.07 415.807 238.167C415.807 236.648 416.447 230.23 416.709 227.706H409.073L411.012 238.558H411.006Z" fill="#FDB98C"/>
<path d="M397.175 117.03C397.235 118.056 397.397 118.96 397.579 119.71C398.414 122.915 402.245 123.867 405.686 119.48C404.912 117.665 404.42 115.08 404.198 113.689C403.397 114.358 401.45 116.153 397.154 116.45C397.154 116.639 397.161 116.834 397.175 117.03Z" fill="#FDB784"/>
<path d="M409.842 101.453C408.299 99.395 406.36 100.839 406.36 100.839V104.214C406.36 104.214 406.36 104.592 404.138 98.8416C404.003 98.4839 403.875 98.1262 403.781 97.755C402.811 93.9891 400.798 93.9823 398.105 94.3737C395.317 94.7854 394.152 90.4121 394.152 90.4121C394.152 90.4121 391.539 92.9767 389.97 93.7326C388.677 94.3603 387.58 97.0463 387.755 102.587C387.795 103.755 387.883 105.051 388.051 106.488C388.926 114.256 396.334 114.985 397.121 115.046C397.162 115.046 397.189 115.046 397.189 115.046C398.266 114.931 399.647 114.681 401.175 114.108C402.327 113.683 403.29 113.183 404.05 112.711C404.663 112.366 405.175 111.854 405.599 111.26C407.108 109.167 407.532 106.103 407.532 106.103C410.293 105.867 411.222 103.309 409.828 101.447L409.842 101.453Z" fill="#FDB784"/>
<path d="M394.212 148.852L393.902 148.582H389.202C389.734 150.147 390.428 151.477 391.04 152.482C391.849 153.812 392.529 154.581 392.529 154.581C394.461 155.297 397.478 156.147 401.242 156.154C405.848 156.154 409.43 154.899 411.464 154.001C411.922 153.09 412.286 152.118 412.575 151.119C409.323 150.667 405.39 151.106 402.447 149.79C398.986 148.237 394.212 148.858 394.212 148.858V148.852Z" fill="#FDA72E"/>
<path d="M397.585 119.709C387.983 121.336 387.128 136.089 387.128 136.089C387.128 136.089 387.148 136.298 387.182 136.663L391.929 142.528C395.067 143.034 395.572 144.782 395.572 144.782C398.319 144.201 401.922 144.431 407.619 144.586C410.272 144.66 412.231 144.485 413.585 144.282C413.713 140.516 413.228 137.56 413.228 137.56C413.228 137.56 413.547 137.439 414.184 137.196L414.218 137.183C414.46 137.088 414.77 136.973 415.154 136.825L415.746 136.595C415.888 136.541 416.043 136.481 416.204 136.42L417.107 136.076C417.477 135.934 417.881 135.779 418.325 135.61L418.352 135.597C419.531 135.144 420.979 134.591 422.756 133.909C420.123 124.13 413.773 118.231 405.875 119.237C405.814 119.318 405.753 119.392 405.693 119.466C402.252 123.853 398.42 122.902 397.585 119.696V119.709Z" fill="#FDA72E"/>
<path d="M392.529 154.581C392.529 154.581 387.997 156.795 386.778 169.193C385.559 181.591 386.549 202.148 388.111 208.958C389.68 215.768 390.145 227.706 390.145 227.706H400.313C399.505 220.073 399.511 213.858 399.673 209.484C399.835 205.286 400.144 202.688 400.952 190.972C401.208 187.253 401.404 184.182 401.532 182.124C402.636 187.307 403.666 192.673 404.616 198.22C406.366 208.519 407.626 218.373 408.508 227.706H417.922C417.922 227.706 419.087 223.92 417.922 214.782C416.757 205.644 418.676 201.102 418.676 189.285C418.676 177.467 417.861 166.001 416.413 161.398C414.959 156.795 411.477 154.008 411.477 154.008C409.444 154.905 405.855 156.167 401.256 156.161C397.491 156.161 394.475 155.304 392.542 154.588L392.529 154.581ZM390.919 212.515C390.919 212.515 390.865 212.521 390.838 212.521C390.67 212.521 390.522 212.407 390.488 212.238C388.542 203.397 387.68 194.36 387.923 185.37C388.078 179.674 388.677 173.938 389.707 168.316C389.741 168.12 389.929 167.985 390.125 168.025C390.32 168.059 390.448 168.248 390.414 168.444C389.391 174.025 388.791 179.728 388.636 185.39C388.394 194.319 389.256 203.302 391.182 212.083C391.222 212.278 391.101 212.467 390.906 212.515H390.919ZM401.734 179.559C401.734 179.559 401.673 179.573 401.639 179.573C401.478 179.573 401.33 179.465 401.289 179.303C399.444 172.244 399.188 165.204 399.188 165.137C399.182 164.934 399.336 164.766 399.538 164.766C399.538 164.766 399.545 164.766 399.552 164.766C399.747 164.766 399.909 164.921 399.916 165.117C399.916 165.184 400.171 172.149 401.996 179.127C402.05 179.323 401.929 179.519 401.74 179.573L401.734 179.559ZM407.619 195.21C406.535 192.335 403.505 173.479 403.377 172.675C403.343 172.48 403.478 172.291 403.673 172.264C403.868 172.23 404.057 172.365 404.084 172.561C404.117 172.756 407.228 192.153 408.286 194.954C408.353 195.143 408.265 195.352 408.077 195.419C408.036 195.433 407.989 195.44 407.949 195.44C407.801 195.44 407.666 195.352 407.612 195.203L407.619 195.21ZM406.346 158.536C406.548 158.503 406.73 158.631 406.77 158.827C406.959 159.839 407.525 161.789 409.181 163.45C410.077 164.354 411.195 165.056 412.407 165.495C412.595 165.562 412.689 165.771 412.622 165.96C412.568 166.109 412.434 166.196 412.285 166.196C412.245 166.196 412.205 166.19 412.164 166.176C410.851 165.704 409.646 164.934 408.669 163.963C406.878 162.161 406.265 160.055 406.063 158.955C406.03 158.759 406.158 158.57 406.353 158.53L406.346 158.536ZM408.097 199.503C408.185 199.32 408.4 199.246 408.582 199.334C408.764 199.422 408.838 199.638 408.75 199.82C408.528 200.279 408.211 202.519 409.962 213.358C409.996 213.561 410.016 213.696 410.023 213.743C410.05 213.939 409.915 214.128 409.713 214.155C409.693 214.155 409.679 214.155 409.659 214.155C409.484 214.155 409.329 214.026 409.302 213.844C409.302 213.797 409.275 213.669 409.242 213.473C407.929 205.354 407.545 200.657 408.097 199.509V199.503ZM412.979 162.451C413.726 163.072 414.629 163.517 415.592 163.74C415.787 163.787 415.908 163.976 415.861 164.172C415.821 164.34 415.673 164.455 415.511 164.455C415.484 164.455 415.457 164.455 415.43 164.448C414.359 164.205 413.349 163.706 412.514 163.011C411.026 161.769 410.44 160.197 410.225 159.373C410.171 159.178 410.292 158.982 410.481 158.928C410.676 158.881 410.871 158.995 410.925 159.184C411.12 159.927 411.639 161.337 412.979 162.451Z" fill="#3E2D35"/>
<path d="M393.902 148.582C393.902 148.582 391.532 148.19 389.391 147.515C387.33 146.861 385.337 146.206 384.96 144.782C384.94 144.721 384.758 143.884 385.148 143.466C385.337 143.27 385.727 143.203 386.542 143.419C388.711 143.999 393.357 144.35 393.357 144.35L391.923 142.528L387.175 136.663L385.842 135.023L366.671 135.313L376.374 148.588H393.896L393.902 148.582Z" fill="#18252E"/>
<path d="M417.1 136.076L416.198 136.42L415.74 136.595L415.147 136.825L414.211 137.182L414.178 137.196L413.881 137.311L415.868 143.776C415.868 143.776 415.127 144.053 413.572 144.289C412.218 144.492 410.252 144.667 407.605 144.593C401.915 144.438 398.313 144.201 395.565 144.788C395.565 144.788 395.06 143.04 391.922 142.534L393.357 144.357C393.357 144.357 388.71 144.006 386.542 143.425C385.727 143.209 385.33 143.27 385.148 143.472C384.751 143.891 384.94 144.721 384.96 144.788C385.337 146.212 387.337 146.874 389.391 147.522C391.532 148.203 393.902 148.588 393.902 148.588L394.212 148.858C394.212 148.858 398.993 148.237 402.447 149.789C405.383 151.105 409.316 150.667 412.575 151.119C413.154 151.2 413.706 151.301 414.231 151.456C417.72 152.469 422.79 152.118 424.224 148.082C425.659 144.046 421.894 134.247 421.894 134.247L418.352 135.603L418.326 135.617L417.107 136.082L417.1 136.076Z" fill="#FEBA8D"/>
<path d="M399.916 165.103C399.916 164.907 399.748 164.752 399.552 164.752C399.552 164.752 399.546 164.752 399.539 164.752C399.337 164.752 399.182 164.927 399.189 165.123C399.189 165.191 399.445 172.23 401.29 179.289C401.33 179.451 401.478 179.559 401.64 179.559C401.667 179.559 401.7 179.559 401.734 179.546C401.929 179.492 402.044 179.296 401.99 179.1C400.165 172.122 399.909 165.164 399.909 165.089L399.916 165.103Z" fill="#2C202A"/>
<path d="M412.158 166.176C412.198 166.189 412.239 166.196 412.279 166.196C412.427 166.196 412.569 166.102 412.616 165.96C412.683 165.771 412.589 165.562 412.4 165.494C411.188 165.056 410.07 164.347 409.175 163.449C407.518 161.789 406.953 159.839 406.764 158.826C406.724 158.631 406.542 158.502 406.34 158.536C406.145 158.577 406.017 158.759 406.05 158.961C406.252 160.055 406.865 162.167 408.656 163.969C409.626 164.948 410.831 165.71 412.144 166.183L412.158 166.176Z" fill="#2C202A"/>
<path d="M410.494 158.927C410.299 158.981 410.184 159.177 410.238 159.373C410.453 160.196 411.039 161.769 412.527 163.011C413.362 163.706 414.372 164.205 415.443 164.448C415.47 164.448 415.497 164.455 415.524 164.455C415.686 164.455 415.84 164.34 415.874 164.171C415.921 163.976 415.8 163.78 415.605 163.739C414.642 163.517 413.739 163.071 412.992 162.45C411.659 161.337 411.134 159.926 410.945 159.184C410.891 158.988 410.696 158.873 410.501 158.927H410.494Z" fill="#2C202A"/>
<path d="M408.09 195.419C408.279 195.352 408.373 195.136 408.299 194.953C407.242 192.146 404.124 172.756 404.097 172.56C404.063 172.365 403.881 172.23 403.686 172.263C403.491 172.297 403.356 172.479 403.39 172.675C403.518 173.478 406.548 192.342 407.632 195.21C407.686 195.358 407.827 195.446 407.969 195.446C408.009 195.446 408.056 195.439 408.097 195.426L408.09 195.419Z" fill="#2C202A"/>
<path d="M409.309 213.837C409.336 214.019 409.491 214.147 409.666 214.147C409.686 214.147 409.699 214.147 409.72 214.147C409.915 214.12 410.056 213.938 410.029 213.736C410.023 213.688 410.002 213.553 409.969 213.351C408.218 202.512 408.541 200.272 408.757 199.813C408.844 199.63 408.763 199.414 408.588 199.327C408.413 199.239 408.191 199.32 408.103 199.495C407.558 200.643 407.942 205.347 409.255 213.459C409.289 213.655 409.309 213.783 409.315 213.83L409.309 213.837Z" fill="#2C202A"/>
<path d="M388.65 185.383C388.805 179.721 389.398 174.025 390.428 168.437C390.462 168.241 390.334 168.052 390.138 168.018C389.943 167.978 389.755 168.113 389.721 168.309C388.691 173.931 388.085 179.667 387.936 185.363C387.694 194.353 388.556 203.39 390.502 212.231C390.536 212.4 390.691 212.514 390.852 212.514C390.879 212.514 390.906 212.514 390.933 212.508C391.128 212.467 391.249 212.271 391.209 212.076C389.276 203.295 388.421 194.312 388.664 185.383H388.65Z" fill="#2C202A"/>
<path d="M397.195 115.052C397.195 115.086 397.195 115.147 397.188 115.214C397.175 115.552 397.161 116.2 397.154 116.422C397.154 116.422 397.154 116.436 397.154 116.443C401.457 116.153 403.397 114.351 404.198 113.682C404.104 113.088 404.056 112.717 404.056 112.717C403.295 113.183 402.333 113.689 401.181 114.114C399.653 114.681 398.272 114.931 397.195 115.052Z" fill="#E4A577"/>
<path d="M408.124 89.5754C408.784 87.0648 406.299 85.7082 405.053 85.1953C404.811 86.0997 404.844 86.7543 404.844 86.7543C404.844 86.7543 407.545 87.5979 408.124 89.5754Z" fill="#369144"/>
<path d="M72.1419 64.8877C78.0272 64.8877 82.8082 68.2419 82.8082 72.379C82.8082 74.2013 81.8856 75.8615 80.3503 77.1641C79.9396 77.515 79.7106 78.0347 79.7106 78.5813V83.2246L76.6198 80.1268C76.1889 79.6949 75.5694 79.4925 74.9633 79.6072C74.0677 79.7827 73.1183 79.8704 72.1419 79.8704C66.2566 79.8704 61.4756 76.5162 61.4756 72.379C61.4756 68.2419 66.2498 64.8877 72.1351 64.8877H72.1419Z" fill="#FFCC44"/>
<path d="M65.8059 75.5511H78.4721C78.6068 75.5511 78.7145 75.4432 78.7145 75.3082V75.1394C78.7145 75.0045 78.6068 74.8965 78.4721 74.8965H65.8059C65.6712 74.8965 65.5635 75.0045 65.5635 75.1394V75.3082C65.5635 75.4432 65.6712 75.5511 65.8059 75.5511Z" fill="#FFA417"/>
<path d="M65.8059 72.703H78.4721C78.6068 72.703 78.7145 72.595 78.7145 72.46V72.2913C78.7145 72.1563 78.6068 72.0483 78.4721 72.0483H65.8059C65.6712 72.0483 65.5635 72.1563 65.5635 72.2913V72.46C65.5635 72.595 65.6712 72.703 65.8059 72.703Z" fill="#FFA417"/>
<path d="M65.8059 69.8617H78.4721C78.6068 69.8617 78.7145 69.7537 78.7145 69.6187V69.45C78.7145 69.315 78.6068 69.207 78.4721 69.207H65.8059C65.6712 69.207 65.5635 69.315 65.5635 69.45V69.6187C65.5635 69.7537 65.6712 69.8617 65.8059 69.8617Z" fill="#FFA417"/>
<path d="M328.84 100.509L326.51 121.572L328.112 100.435L328.84 100.509Z" fill="#5B94D8"/>
<path d="M369.526 103.032C368.549 108.229 365.782 113.115 361.337 116.679C356.402 120.641 350.334 122.22 344.51 121.579L346.84 100.515L369.526 103.032Z" fill="#657E93"/>
<path d="M364.9 84.4256C369.243 89.8653 370.718 96.6817 369.526 103.032L346.84 100.515L346.113 100.434L331.393 82.0095C331.817 81.6113 332.261 81.2266 332.719 80.8554C342.591 72.9321 356.994 74.5316 364.9 84.4256Z" fill="#52DB5B"/>
<path d="M331.393 82.0029L346.113 100.428L344.51 121.572C338.685 120.924 333.11 118.049 329.157 113.102C321.622 103.667 322.72 90.1084 331.393 82.0029Z" fill="#5B94D8"/>
</svg>
