<svg width="447" height="516" viewBox="0 0 447 516" fill="none" xmlns="http://www.w3.org/2000/svg">
<path opacity="0.05" fill-rule="evenodd" clip-rule="evenodd" d="M210.709 38.9833C271.327 44.8717 344.998 -5.12892 388.938 37.0438C432.564 78.9149 384.243 154.134 393.02 213.962C401.727 273.311 467.746 330.149 439.721 383.184C411.644 436.319 328.598 416.601 273.393 440.349C223.122 461.974 186.501 520.446 131.996 515.558C77.046 510.63 40.47 458.243 4.68555 416.252C-28.6169 377.174 -55.4811 333.827 -65.7462 283.52C-76.4429 231.097 -75.5152 176.462 -54.262 127.362C-31.9569 75.832 1.71779 22.3705 54.9836 4.60417C106.676 -12.6374 156.472 33.7149 210.709 38.9833Z" fill="#0D59EF"/>
</svg>
