<svg width="46" height="46" viewBox="0 0 46 46" fill="none" xmlns="http://www.w3.org/2000/svg">
<circle cx="23" cy="23" r="23" fill="#1ACB34" fill-opacity="0.1"/>
<path fill-rule="evenodd" clip-rule="evenodd" d="M23 11C16.383 11 11 16.383 11 23C11 29.617 16.383 35 23 35C29.617 35 35 29.617 35 23C35 16.383 29.617 11 23 11ZM23 33.3244C17.3071 33.3244 12.6755 28.6929 12.6755 23C12.6755 17.3071 17.3071 12.6755 23 12.6755C28.6929 12.6755 33.3246 17.3071 33.3246 23C33.3246 28.6929 28.6929 33.3244 23 33.3244ZM23.0877 16.8492C20.6226 16.8492 18.9196 18.4287 19.021 20.7075H20.6636C20.6636 19.4351 21.4671 18.4095 23.0192 18.4287C24.363 18.4287 25.298 19.2514 25.298 20.521C25.298 21.6774 24.5541 22.316 23.7643 22.9942C22.87 23.762 21.9169 24.5804 21.9169 26.2578H23.7295C23.7295 25.1468 24.4309 24.5076 25.182 23.8232C26.0475 23.0344 26.979 22.1856 26.979 20.4854C26.979 18.5247 25.4406 16.8519 23.0877 16.8519V16.8492ZM21.8866 27.2888H23.7487V29.1508H21.8866V27.2888Z" fill="#0DBD27"/>
</svg>
