<svg width="46" height="46" viewBox="0 0 46 46" fill="none" xmlns="http://www.w3.org/2000/svg">
<circle cx="23" cy="23" r="23" fill="#8321F2" fill-opacity="0.1"/>
<g clip-path="url(#clip0_346_4852)">
<path d="M23 11.75C16.7957 11.75 11.75 16.7957 11.75 23C11.75 29.2043 16.7957 34.25 23 34.25C29.2043 34.25 34.25 29.2043 34.25 23C34.25 16.7957 29.2043 11.75 23 11.75ZM23 13.25C28.3937 13.25 32.7559 17.6063 32.7559 23C32.7559 28.3937 28.3937 32.7559 23 32.7559C17.6063 32.7559 13.25 28.3937 13.25 23C13.25 17.6063 17.6063 13.25 23 13.25ZM22.9897 17.0044C22.7916 17.0079 22.6029 17.0896 22.4648 17.2318C22.3268 17.374 22.2506 17.565 22.2529 17.7632V18.3945C21.0419 18.6217 20.0059 19.4015 20.0059 20.7529C20.0059 21.6904 20.4285 22.4487 20.9961 22.8901C21.5637 23.3316 22.2046 23.5273 22.7671 23.7148C23.3296 23.9023 23.8152 24.0816 24.0913 24.2964C24.3675 24.5112 24.5 24.6919 24.5 25.2544C24.5 26.5044 21.5059 26.5044 21.5059 25.2544C21.5081 25.1545 21.4903 25.0552 21.4536 24.9622C21.4169 24.8693 21.362 24.7846 21.2922 24.7132C21.2223 24.6418 21.1389 24.585 21.0468 24.5463C20.9547 24.5075 20.8558 24.4876 20.7559 24.4876C20.6559 24.4876 20.557 24.5075 20.4649 24.5463C20.3728 24.585 20.2894 24.6418 20.2195 24.7132C20.1497 24.7846 20.0948 24.8693 20.0581 24.9622C20.0214 25.0552 20.0036 25.1545 20.0059 25.2544C20.0059 26.6048 21.0429 27.386 22.2529 27.6143V28.2427C22.2507 28.3426 22.2685 28.4419 22.3052 28.5348C22.3419 28.6278 22.3968 28.7124 22.4666 28.7839C22.5365 28.8553 22.6199 28.912 22.712 28.9508C22.8041 28.9895 22.903 29.0095 23.0029 29.0095C23.1028 29.0095 23.2018 28.9895 23.2938 28.9508C23.3859 28.912 23.4694 28.8553 23.5392 28.7839C23.6091 28.7124 23.664 28.6278 23.7007 28.5348C23.7374 28.4419 23.7551 28.3426 23.7529 28.2427V27.6143C24.9632 27.3862 26.0015 26.6049 26.0015 25.2544C26.0015 24.3169 25.5774 23.5587 25.0098 23.1172C24.4422 22.6757 23.8013 22.4785 23.2388 22.291C22.6763 22.1035 22.1907 21.9257 21.9145 21.7109C21.6384 21.4962 21.5059 21.3154 21.5059 20.7529C21.5059 19.5029 24.5 19.5029 24.5 20.7529C24.5 20.952 24.5791 21.143 24.7199 21.2838C24.8607 21.4246 25.0516 21.5037 25.2507 21.5037C25.4498 21.5037 25.6408 21.4246 25.7816 21.2838C25.9224 21.143 26.0015 20.952 26.0015 20.7529C26.0015 19.4035 24.9629 18.6245 23.7529 18.396V17.7632C23.7541 17.6628 23.7351 17.5633 23.6972 17.4704C23.6592 17.3775 23.6029 17.2932 23.5318 17.2224C23.4606 17.1517 23.376 17.0959 23.2829 17.0585C23.1898 17.021 23.0901 17.0026 22.9897 17.0044Z" fill="#7813EB"/>
</g>
<defs>
<clipPath id="clip0_346_4852">
<rect width="24" height="24" fill="white" transform="translate(11 11)"/>
</clipPath>
</defs>
</svg>
