<svg width="46" height="46" viewBox="0 0 46 46" fill="none" xmlns="http://www.w3.org/2000/svg">
<circle cx="23" cy="23" r="23" fill="#377DFF" fill-opacity="0.1"/>
<g clip-path="url(#clip0_346_4620)">
<path d="M27.9914 24.0469C27.9914 24.3316 27.7605 24.5625 27.4757 24.5625H23.2315C22.9467 24.5625 22.7158 24.3316 22.7158 24.0469C22.7158 23.7621 22.9467 23.5313 23.2315 23.5313H27.4757C27.7605 23.5313 27.9914 23.7621 27.9914 24.0469ZM27.4757 19.259H23.2315C22.9467 19.259 22.7158 19.4899 22.7158 19.7746C22.7158 20.0594 22.9467 20.2903 23.2315 20.2903H27.4757C27.7605 20.2903 27.9914 20.0594 27.9914 19.7746C27.9914 19.4899 27.7605 19.259 27.4757 19.259ZM20.4923 18.5777L19.0598 19.8778L18.6676 19.4855C18.4662 19.2842 18.1398 19.2842 17.9384 19.4855C17.737 19.6869 17.737 20.0134 17.9384 20.2148L18.6779 20.9543C18.7784 21.0548 18.9104 21.1054 19.0426 21.1054C19.1665 21.1054 19.2906 21.061 19.3891 20.9716L21.1853 19.3415C21.3962 19.1501 21.412 18.824 21.2207 18.6131C21.0292 18.4021 20.7032 18.3864 20.4923 18.5777ZM20.4923 22.85L19.0598 24.15L18.6676 23.7578C18.4662 23.5564 18.1398 23.5564 17.9384 23.7578C17.737 23.9592 17.737 24.2856 17.9384 24.487L18.6779 25.2266C18.7784 25.327 18.9104 25.3776 19.0426 25.3776C19.1665 25.3776 19.2906 25.3332 19.3891 25.2438L21.1853 23.6137C21.3962 23.4223 21.412 23.0962 21.2207 22.8854C21.0293 22.6745 20.7032 22.6586 20.4923 22.85ZM20.4923 27.1222L19.0598 28.4223L18.6676 28.0301C18.4662 27.8287 18.1397 27.8287 17.9384 28.0301C17.737 28.2315 17.7371 28.558 17.9384 28.7593L18.678 29.4988C18.7784 29.5993 18.9104 29.6499 19.0426 29.6499C19.1665 29.6499 19.2906 29.6055 19.3891 29.5161L21.1853 27.886C21.3962 27.6946 21.412 27.3685 21.2207 27.1576C21.0292 26.9467 20.7032 26.9309 20.4923 27.1222ZM31.3325 14.8824V31.4143C31.3325 32.194 30.6982 32.8284 29.9184 32.8284H16.0821C15.3024 32.8284 14.668 32.194 14.668 31.4143V14.8824C14.668 14.1027 15.3023 13.4684 16.0821 13.4684H18.4469V13.0511C18.4469 12.7664 18.6778 12.5355 18.9625 12.5355H20.8995C21.262 11.7159 22.0759 11.1721 23.0003 11.1721C23.9247 11.1721 24.7385 11.7159 25.1011 12.5355H27.038C27.3228 12.5355 27.5537 12.7663 27.5537 13.0511V13.4683H29.9185C30.6982 13.4683 31.3325 14.1027 31.3325 14.8824ZM19.4781 15.2623H26.5224V13.5667H24.7334C24.4952 13.5667 24.288 13.4036 24.2321 13.172C24.0946 12.6017 23.588 12.2034 23.0003 12.2034C22.4125 12.2034 21.9059 12.6017 21.7684 13.172C21.7125 13.4036 21.5053 13.5668 21.2671 13.5668H19.4781V15.2623H19.4781ZM30.3013 14.8824C30.3013 14.6714 30.1295 14.4996 29.9184 14.4996H27.5537V15.7779C27.5537 16.0627 27.3228 16.2936 27.038 16.2936H18.9625C18.6778 16.2936 18.4469 16.0627 18.4469 15.7779V14.4996H16.0821C15.871 14.4996 15.6992 14.6714 15.6992 14.8824V31.4143C15.6992 31.6254 15.871 31.7971 16.0821 31.7971H29.9185C30.1296 31.7971 30.3013 31.6254 30.3013 31.4143L30.3013 14.8824ZM27.4757 27.8036H23.2315C22.9467 27.8036 22.7158 28.0344 22.7158 28.3192C22.7158 28.6039 22.9467 28.8348 23.2315 28.8348H27.4757C27.7605 28.8348 27.9914 28.6039 27.9914 28.3192C27.9914 28.0344 27.7605 27.8036 27.4757 27.8036Z" fill="#216EFD" stroke="#216EFD" stroke-width="0.3"/>
</g>
<defs>
<clipPath id="clip0_346_4620">
<rect width="22" height="22" fill="white" transform="translate(12 11.0002)"/>
</clipPath>
</defs>
</svg>
