<svg width="46" height="46" viewBox="0 0 46 46" fill="none" xmlns="http://www.w3.org/2000/svg">
<circle cx="23" cy="23" r="23" fill="#0298F5" fill-opacity="0.1"/>
<path d="M22.943 12.25H23.0578C25.3662 12.25 27.1752 12.25 28.5867 12.4398C30.0314 12.634 31.1715 13.0393 32.0663 13.9341C32.9611 14.829 33.3664 15.969 33.5607 17.4137C33.7504 18.8252 33.7504 20.6342 33.7504 22.9426V23.0574C33.7504 25.3658 33.7504 27.1748 33.5607 28.5863C33.3664 30.031 32.9611 31.1711 32.0663 32.0659C31.2379 32.8943 30.1985 33.3038 28.8998 33.514C27.623 33.7207 26.0169 33.7458 24.0018 33.7494C23.5876 33.7502 23.2512 33.415 23.2504 33.0008C23.2497 32.5866 23.5848 32.2502 23.9991 32.2494C26.039 32.2457 27.5221 32.2175 28.6601 32.0333C29.7761 31.8526 30.477 31.5338 31.0056 31.0052C31.5753 30.4355 31.9022 29.6648 32.074 28.3864C32.2488 27.0864 32.2504 25.3782 32.2504 23C32.2504 20.6218 32.2488 18.9136 32.074 17.6136C31.9022 16.3352 31.5753 15.5645 31.0056 14.9948C30.436 14.4251 29.6652 14.0983 28.3868 13.9264C27.0869 13.7516 25.3786 13.75 23.0004 13.75C20.6222 13.75 18.914 13.7516 17.614 13.9264C16.3356 14.0983 15.5649 14.4251 14.9952 14.9948C14.4666 15.5234 14.1478 16.2243 13.9671 17.3403C13.7829 18.4783 13.7546 19.9614 13.751 22.0014C13.7502 22.4156 13.4138 22.7507 12.9996 22.75C12.5854 22.7493 12.2502 22.4129 12.251 21.9986C12.2546 19.9835 12.2797 18.3774 12.4864 17.1006C12.6966 15.8019 13.1061 14.7626 13.9345 13.9341C14.8293 13.0393 15.9694 12.634 17.4141 12.4398C18.8256 12.25 20.6346 12.25 22.943 12.25Z" fill="#0298F5"/>
<path d="M23.5 18C23.5 17.5858 23.8358 17.25 24.25 17.25H28C28.4142 17.25 28.75 17.5858 28.75 18V21.75C28.75 22.1642 28.4142 22.5 28 22.5C27.5858 22.5 27.25 22.1642 27.25 21.75V19.8107L23.5303 23.5303C23.2374 23.8232 22.7626 23.8232 22.4697 23.5303C22.1768 23.2374 22.1768 22.7626 22.4697 22.4697L26.1893 18.75H24.25C23.8358 18.75 23.5 18.4142 23.5 18Z" fill="#0298F5"/>
<path fill-rule="evenodd" clip-rule="evenodd" d="M16.948 24.25C16.0495 24.25 15.3003 24.2499 14.7055 24.3299C14.0777 24.4143 13.5109 24.6 13.0555 25.0555C12.6 25.5109 12.4143 26.0777 12.3299 26.7055C12.25 27.3003 12.25 28.0495 12.25 28.948V29.052C12.25 29.9505 12.25 30.6997 12.3299 31.2945C12.4143 31.9223 12.6 32.4891 13.0555 32.9445C13.5109 33.4 14.0777 33.5857 14.7055 33.6701C15.3003 33.7501 16.0495 33.75 16.948 33.75H17.052C17.9505 33.75 18.6997 33.7501 19.2945 33.6701C19.9223 33.5857 20.4891 33.4 20.9446 32.9445C21.4 32.4891 21.5857 31.9223 21.6701 31.2945C21.7501 30.6997 21.75 29.9505 21.75 29.052V28.948C21.75 28.0495 21.7501 27.3003 21.6701 26.7055C21.5857 26.0777 21.4 25.5109 20.9446 25.0555C20.4891 24.6 19.9223 24.4143 19.2945 24.3299C18.6997 24.2499 17.9505 24.25 17.052 24.25H16.948ZM14.1161 26.1161C14.2464 25.9858 14.4439 25.8786 14.9054 25.8165C15.3884 25.7516 16.036 25.75 17 25.75C17.964 25.75 18.6116 25.7516 19.0946 25.8165C19.5561 25.8786 19.7536 25.9858 19.8839 26.1161C20.0142 26.2464 20.1214 26.4439 20.1835 26.9054C20.2484 27.3884 20.25 28.036 20.25 29C20.25 29.964 20.2484 30.6116 20.1835 31.0946C20.1214 31.5561 20.0142 31.7536 19.8839 31.8839C19.7536 32.0142 19.5561 32.1214 19.0946 32.1835C18.6116 32.2484 17.964 32.25 17 32.25C16.036 32.25 15.3884 32.2484 14.9054 32.1835C14.4439 32.1214 14.2464 32.0142 14.1161 31.8839C13.9858 31.7536 13.8786 31.5561 13.8165 31.0946C13.7516 30.6116 13.75 29.964 13.75 29C13.75 28.036 13.7516 27.3884 13.8165 26.9054C13.8786 26.4439 13.9858 26.2464 14.1161 26.1161Z" fill="#0298F5"/>
</svg>
