<svg width="46" height="46" viewBox="0 0 46 46" fill="none" xmlns="http://www.w3.org/2000/svg">
<circle cx="23" cy="23" r="23" fill="#1ACB34" fill-opacity="0.1"/>
<path d="M16.8615 26.8373C16.7098 26.8372 16.5616 26.7921 16.4355 26.7078C16.3094 26.6235 16.2111 26.5036 16.1531 26.3635C16.0951 26.2233 16.0799 26.0691 16.1094 25.9204C16.139 25.7716 16.212 25.6349 16.3192 25.5276L20.4122 21.4346C20.5376 21.3091 20.7025 21.231 20.879 21.2135C21.0555 21.196 21.2326 21.2401 21.3802 21.3384L23.922 23.0359L28.5982 18.3648C28.7437 18.2292 28.9361 18.1554 29.135 18.1589C29.3338 18.1624 29.5235 18.243 29.6641 18.3836C29.8047 18.5242 29.8852 18.7139 29.8887 18.9127C29.8923 19.1115 29.8185 19.304 29.6829 19.4494L24.5666 24.5657C24.4411 24.6909 24.2762 24.7689 24.0998 24.7865C23.9233 24.804 23.7463 24.76 23.5986 24.6619L21.0568 22.9643L17.4038 26.6122C17.3328 26.6838 17.2483 26.7405 17.1552 26.7792C17.0621 26.8178 16.9623 26.8376 16.8615 26.8373Z" fill="#0DBD27"/>
<path d="M29.1395 34H16.8605C15.5719 33.9984 14.3366 33.4858 13.4254 32.5746C12.5142 31.6634 12.0016 30.4281 12 29.1395V16.8605C12.0016 15.5719 12.5142 14.3366 13.4254 13.4254C14.3366 12.5142 15.5719 12.0016 16.8605 12H29.1395C30.4281 12.0016 31.6634 12.5142 32.5746 13.4254C33.4858 14.3366 33.9984 15.5719 34 16.8605V29.1395C33.9984 30.4281 33.4858 31.6634 32.5746 32.5746C31.6634 33.4858 30.4281 33.9984 29.1395 34ZM16.8605 13.5349C15.9788 13.536 15.1336 13.8867 14.5101 14.5101C13.8867 15.1336 13.536 15.9788 13.5349 16.8605V29.1395C13.536 30.0212 13.8867 30.8664 14.5101 31.4899C15.1336 32.1133 15.9788 32.464 16.8605 32.4651H29.1395C30.0212 32.464 30.8664 32.1133 31.4899 31.4899C32.1133 30.8664 32.464 30.0212 32.4651 29.1395V16.8605C32.464 15.9788 32.1133 15.1336 31.4899 14.5101C30.8664 13.8867 30.0212 13.536 29.1395 13.5349H16.8605Z" fill="#0DBD27"/>
<path d="M29.1399 22.7443C28.9364 22.7443 28.7412 22.6634 28.5973 22.5195C28.4534 22.3756 28.3725 22.1804 28.3725 21.9769V19.6745H26.0702C25.8666 19.6745 25.6714 19.5937 25.5275 19.4498C25.3836 19.3058 25.3027 19.1106 25.3027 18.9071C25.3027 18.7036 25.3836 18.5084 25.5275 18.3644C25.6714 18.2205 25.8666 18.1396 26.0702 18.1396H29.1399C29.3435 18.1396 29.5387 18.2205 29.6826 18.3644C29.8265 18.5084 29.9074 18.7036 29.9074 18.9071V21.9769C29.9074 22.1804 29.8265 22.3756 29.6826 22.5195C29.5387 22.6634 29.3435 22.7443 29.1399 22.7443Z" fill="#0DBD27"/>
</svg>
