<svg width="21" height="21" viewBox="0 0 21 21" fill="none" xmlns="http://www.w3.org/2000/svg">
<path d="M2.44979 0.160156C1.0903 0.160156 0.103516 1.11817 0.103516 2.4379C0.103516 3.75683 1.07076 4.71418 2.40305 4.71418C3.09406 4.71418 3.68946 4.48534 4.12503 4.05211C4.54279 3.63654 4.77313 3.06328 4.7727 2.42749C4.7421 1.09256 3.78677 0.160156 2.44979 0.160156ZM3.51818 3.41459C3.24833 3.68301 2.86246 3.82478 2.40305 3.82478C1.5616 3.82478 0.973862 3.25459 0.973862 2.4379C0.973862 1.6076 1.56712 1.04955 2.44979 1.04955C3.31292 1.04955 3.88281 1.59867 3.90235 2.43812C3.90235 2.82141 3.76593 3.16814 3.51818 3.41459Z" fill="#222631"/>
<path d="M0.520508 20.1606H4.43197V5.46582H0.520508V20.1606ZM1.39085 6.35522H3.56162V19.2712H1.39085V6.35522Z" fill="#222631"/>
<path d="M14.7462 5.46582C12.9324 5.46582 11.8219 6.10547 11.1785 6.7072L11.0561 5.46582H6.63086V20.1606H10.9647V12.4372C10.9647 12.1046 11.0965 11.4138 11.1794 11.2315C11.7029 10.0791 12.4092 10.0791 13.4789 10.0791C14.7109 10.0791 15.7517 11.2597 15.7517 12.657V20.1606H20.1034V11.8579C20.1034 7.46607 17.3262 5.46582 14.7462 5.46582ZM19.233 19.2712H16.622V12.657C16.622 10.7774 15.1826 9.18972 13.4789 9.18972C12.3858 9.18972 11.147 9.18972 10.3897 10.8571C10.2333 11.2017 10.0944 12.0277 10.0944 12.4372V19.2712H7.50121V6.35522H10.2691L10.4467 8.15375H11.1598L11.2873 7.94355C11.5775 7.46607 12.4955 6.35522 14.7462 6.35522C16.9072 6.35522 19.233 8.07709 19.233 11.8579V19.2712Z" fill="#222631"/>
</svg>
