<svg width="35" height="44" viewBox="0 0 35 44" fill="none" xmlns="http://www.w3.org/2000/svg">
<path d="M27.4818 26.1392C27.4818 26.7087 27.02 27.1704 26.4505 27.1704H17.962C17.3925 27.1704 16.9307 26.7087 16.9307 26.1392C16.9307 25.5697 17.3925 25.1079 17.962 25.1079H26.4505C27.02 25.1079 27.4818 25.5697 27.4818 26.1392ZM26.4505 16.5634H17.962C17.3925 16.5634 16.9307 17.0252 16.9307 17.5947C16.9307 18.1642 17.3925 18.6259 17.962 18.6259H26.4505C27.02 18.6259 27.4818 18.1642 27.4818 17.5947C27.4818 17.0252 27.02 16.5634 26.4505 16.5634ZM12.4836 15.2009L9.61863 17.8009L8.8342 17.0165C8.43141 16.6138 7.77854 16.6138 7.37575 17.0165C6.97296 17.4193 6.97296 18.0721 7.37575 18.4749L8.85491 19.9541C9.05574 20.1549 9.31974 20.2562 9.58426 20.2562C9.83202 20.2562 10.0802 20.1674 10.2772 19.9886L13.8697 16.7283C14.2915 16.3456 14.3231 15.6934 13.9403 15.2716C13.5575 14.8497 12.9055 14.8182 12.4836 15.2009ZM12.4836 23.7454L9.61863 26.3454L8.8342 25.561C8.43141 25.1583 7.77854 25.1583 7.37575 25.561C6.97296 25.9638 6.97296 26.6167 7.37575 27.0194L8.85491 28.4986C9.05574 28.6994 9.31974 28.8007 9.58426 28.8007C9.83202 28.8007 10.0802 28.7119 10.2772 28.5331L13.8697 25.2728C14.2915 24.8901 14.3231 24.2378 13.9403 23.8161C13.5577 23.3943 12.9054 23.3626 12.4836 23.7454ZM12.4836 32.2899L9.61863 34.8899L8.8342 34.1056C8.43149 33.7027 7.77845 33.7029 7.37584 34.1056C6.97305 34.5084 6.97313 35.1613 7.37584 35.564L8.85499 37.0431C9.05583 37.244 9.31983 37.3452 9.58426 37.3452C9.83202 37.3452 10.0802 37.2564 10.2772 37.0777L13.8697 33.8174C14.2915 33.4346 14.3231 32.7824 13.9403 32.3606C13.5575 31.9388 12.9055 31.9072 12.4836 32.2899ZM34.1641 7.81027V40.874C34.1641 42.4335 32.8954 43.7021 31.3359 43.7021H3.66316C2.10374 43.7021 0.834961 42.4335 0.834961 40.874V7.81027C0.834961 6.25084 2.10366 4.98215 3.66316 4.98215H8.39282V4.1477C8.39282 3.57819 8.85456 3.11645 9.42407 3.11645H13.298C14.0231 1.47727 15.6508 0.389648 17.4995 0.389648C19.3484 0.389648 20.976 1.47727 21.7012 3.11636H25.5751C26.1446 3.11636 26.6063 3.5781 26.6063 4.14761V4.98206H31.336C32.8954 4.98206 34.1641 6.25076 34.1641 7.81027ZM10.4553 8.56995H24.5438V5.17886H20.9658C20.4895 5.17886 20.075 4.85255 19.9633 4.38935C19.6882 3.24887 18.6751 2.45215 17.4995 2.45215C16.324 2.45215 15.3109 3.24887 15.0358 4.38944C14.9241 4.85264 14.5097 5.17895 14.0332 5.17895H10.4552V8.56995H10.4553ZM32.1016 7.81027C32.1016 7.38814 31.7581 7.04465 31.3359 7.04465H26.6063V9.60129C26.6063 10.1709 26.1446 10.6325 25.5751 10.6325H9.42407C8.85456 10.6325 8.39282 10.1709 8.39282 9.60129V7.04465H3.66316C3.24095 7.04465 2.89746 7.38814 2.89746 7.81027V40.874C2.89746 41.2962 3.24095 41.6396 3.66316 41.6396H31.336C31.7582 41.6396 32.1017 41.2962 32.1017 40.874L32.1016 7.81027ZM26.4505 33.6525H17.962C17.3925 33.6525 16.9307 34.1143 16.9307 34.6838C16.9307 35.2533 17.3925 35.715 17.962 35.715H26.4505C27.02 35.715 27.4818 35.2533 27.4818 34.6838C27.4818 34.1143 27.02 33.6525 26.4505 33.6525Z" fill="#F54602"/>
</svg>
