<svg width="51" height="51" viewBox="0 0 51 51" fill="none" xmlns="http://www.w3.org/2000/svg">
<g clip-path="url(#clip0_354_5590)">
<path d="M14.0413 39.6292H9.87467C9.29967 39.6292 8.83301 39.1626 8.83301 38.5876C8.83301 38.0126 9.29967 37.5459 9.87467 37.5459H14.0413C14.6163 37.5459 15.083 38.0126 15.083 38.5876C15.083 39.1626 14.6163 39.6292 14.0413 39.6292Z" fill="#F54602"/>
<path d="M47.896 39.6292H45.2918C44.7168 39.6292 44.2502 39.1625 44.2502 38.5875C44.2502 38.0125 44.7168 37.5458 45.2918 37.5458H47.0314L48.4356 30.0625C48.4168 26.2333 45.146 22.9625 41.1252 22.9625H34.2856L30.971 37.5458H36.9585C37.5335 37.5458 38.0002 38.0125 38.0002 38.5875C38.0002 39.1625 37.5335 39.6292 36.9585 39.6292H29.6668C29.3502 39.6292 29.0502 39.4854 28.8522 39.2375C28.6543 38.9916 28.5793 38.6666 28.6502 38.3583L32.4377 21.6917C32.546 21.2146 32.9668 20.8792 33.4543 20.8792H41.1252C46.2939 20.8792 50.5002 25.0854 50.5002 30.2542L48.9189 38.7791C48.8272 39.2729 48.3981 39.6292 47.896 39.6292Z" fill="#F54602"/>
<path d="M41.1253 43.7958C38.2545 43.7958 35.917 41.4604 35.917 38.5875C35.917 35.7146 38.2545 33.3792 41.1253 33.3792C43.9962 33.3792 46.3337 35.7146 46.3337 38.5875C46.3337 41.4604 43.9962 43.7958 41.1253 43.7958ZM41.1253 35.4625C39.4024 35.4625 38.0003 36.8646 38.0003 38.5875C38.0003 40.3104 39.4024 41.7125 41.1253 41.7125C42.8482 41.7125 44.2503 40.3104 44.2503 38.5875C44.2503 36.8646 42.8482 35.4625 41.1253 35.4625Z" fill="#F54602"/>
<path d="M18.2083 43.7958C15.3375 43.7958 13 41.4604 13 38.5875C13 35.7146 15.3375 33.3792 18.2083 33.3792C21.0792 33.3792 23.4167 35.7146 23.4167 38.5875C23.4167 41.4604 21.0792 43.7958 18.2083 43.7958ZM18.2083 35.4625C16.4854 35.4625 15.0833 36.8646 15.0833 38.5875C15.0833 40.3104 16.4854 41.7125 18.2083 41.7125C19.9313 41.7125 21.3333 40.3104 21.3333 38.5875C21.3333 36.8646 19.9313 35.4625 18.2083 35.4625Z" fill="#F54602"/>
<path d="M14.042 20.8792H5.70866C5.13366 20.8792 4.66699 20.4126 4.66699 19.8376C4.66699 19.2626 5.13366 18.7959 5.70866 18.7959H14.042C14.617 18.7959 15.0837 19.2626 15.0837 19.8376C15.0837 20.4126 14.617 20.8792 14.042 20.8792Z" fill="#F54602"/>
<path d="M14.0413 27.1292H3.62467C3.04967 27.1292 2.58301 26.6626 2.58301 26.0876C2.58301 25.5126 3.04967 25.0459 3.62467 25.0459H14.0413C14.6163 25.0459 15.083 25.5126 15.083 26.0876C15.083 26.6626 14.6163 27.1292 14.0413 27.1292Z" fill="#F54602"/>
<path d="M14.0417 33.3792H1.54167C0.966667 33.3792 0.5 32.9126 0.5 32.3376C0.5 31.7626 0.966667 31.2959 1.54167 31.2959H14.0417C14.6167 31.2959 15.0833 31.7626 15.0833 32.3376C15.0833 32.9126 14.6167 33.3792 14.0417 33.3792Z" fill="#F54602"/>
<path d="M29.6663 39.6292H22.3747C21.7997 39.6292 21.333 39.1625 21.333 38.5875C21.333 38.0125 21.7997 37.5458 22.3747 37.5458H28.8351L33.5684 16.7125H9.87467C9.29967 16.7125 8.83301 16.2458 8.83301 15.6708C8.83301 15.0958 9.29967 14.6292 9.87467 14.6292H34.8747C35.1913 14.6292 35.4913 14.7729 35.6893 15.0208C35.8872 15.2667 35.9622 15.5917 35.8913 15.9L30.683 38.8167C30.5747 39.2937 30.1518 39.6292 29.6663 39.6292Z" fill="#F54602"/>
</g>
<defs>
<clipPath id="clip0_354_5590">
<rect width="50" height="50" fill="white" transform="translate(0.5 0.0458984)"/>
</clipPath>
</defs>
</svg>
