<svg width="45" height="45" viewBox="0 0 45 45" fill="none" xmlns="http://www.w3.org/2000/svg">
<g clip-path="url(#clip0_354_5576)">
<path d="M35.333 4.62931H31.6663V3.71265C31.6663 2.15431 30.4747 0.962646 28.9163 0.962646H16.083C14.5247 0.962646 13.333 2.15431 13.333 3.71265V4.62931H9.66634C7.09967 4.62931 5.08301 6.64598 5.08301 9.21265V38.546C5.08301 41.1126 7.09967 43.1293 9.66634 43.1293H35.333C37.8997 43.1293 39.9163 41.1126 39.9163 38.546V9.21265C39.9163 6.64598 37.8997 4.62931 35.333 4.62931ZM15.1663 3.71265C15.1663 3.16265 15.533 2.79598 16.083 2.79598H28.9163C29.4663 2.79598 29.833 3.16265 29.833 3.71265V5.54598V7.37931C29.833 7.92931 29.4663 8.29598 28.9163 8.29598H16.083C15.533 8.29598 15.1663 7.92931 15.1663 7.37931V5.54598V3.71265ZM38.083 38.546C38.083 40.1043 36.8913 41.296 35.333 41.296H9.66634C8.10801 41.296 6.91634 40.1043 6.91634 38.546V9.21265C6.91634 7.65431 8.10801 6.46265 9.66634 6.46265H13.333V7.37931C13.333 8.93765 14.5247 10.1293 16.083 10.1293H28.9163C30.4747 10.1293 31.6663 8.93765 31.6663 7.37931V6.46265H35.333C36.8913 6.46265 38.083 7.65431 38.083 9.21265V38.546Z" fill="#F54602"/>
<path d="M13.333 21.1292C11.7747 21.1292 10.583 19.9375 10.583 18.3792C10.583 16.8208 11.7747 15.6292 13.333 15.6292C14.8913 15.6292 16.083 16.8208 16.083 18.3792C16.083 19.9375 14.8913 21.1292 13.333 21.1292ZM13.333 17.4625C12.783 17.4625 12.4163 17.8292 12.4163 18.3792C12.4163 18.9292 12.783 19.2958 13.333 19.2958C13.883 19.2958 14.2497 18.9292 14.2497 18.3792C14.2497 17.8292 13.883 17.4625 13.333 17.4625Z" fill="#F54602"/>
<path d="M33.5003 19.296H18.8337C18.2837 19.296 17.917 18.9293 17.917 18.3793C17.917 17.8293 18.2837 17.4626 18.8337 17.4626H33.5003C34.0503 17.4626 34.417 17.8293 34.417 18.3793C34.417 18.9293 34.0503 19.296 33.5003 19.296Z" fill="#F54602"/>
<path d="M13.333 28.4626C11.7747 28.4626 10.583 27.271 10.583 25.7126C10.583 24.1543 11.7747 22.9626 13.333 22.9626C14.8913 22.9626 16.083 24.1543 16.083 25.7126C16.083 27.271 14.8913 28.4626 13.333 28.4626ZM13.333 24.796C12.783 24.796 12.4163 25.1626 12.4163 25.7126C12.4163 26.2626 12.783 26.6293 13.333 26.6293C13.883 26.6293 14.2497 26.2626 14.2497 25.7126C14.2497 25.1626 13.883 24.796 13.333 24.796Z" fill="#F54602"/>
<path d="M33.5003 26.6292H18.8337C18.2837 26.6292 17.917 26.2626 17.917 25.7126C17.917 25.1626 18.2837 24.7959 18.8337 24.7959H33.5003C34.0503 24.7959 34.417 25.1626 34.417 25.7126C34.417 26.2626 34.0503 26.6292 33.5003 26.6292Z" fill="#F54602"/>
<path d="M13.333 35.7959C11.7747 35.7959 10.583 34.6042 10.583 33.0459C10.583 31.4876 11.7747 30.2959 13.333 30.2959C14.8913 30.2959 16.083 31.4876 16.083 33.0459C16.083 34.6042 14.8913 35.7959 13.333 35.7959ZM13.333 32.1292C12.783 32.1292 12.4163 32.4959 12.4163 33.0459C12.4163 33.5959 12.783 33.9626 13.333 33.9626C13.883 33.9626 14.2497 33.5959 14.2497 33.0459C14.2497 32.4959 13.883 32.1292 13.333 32.1292Z" fill="#F54602"/>
<path d="M33.5003 33.9625H18.8337C18.2837 33.9625 17.917 33.5958 17.917 33.0458C17.917 32.4958 18.2837 32.1292 18.8337 32.1292H33.5003C34.0503 32.1292 34.417 32.4958 34.417 33.0458C34.417 33.5958 34.0503 33.9625 33.5003 33.9625Z" fill="#F54602"/>
</g>
<defs>
<clipPath id="clip0_354_5576">
<rect width="44" height="44" fill="white" transform="translate(0.5 0.0458984)"/>
</clipPath>
</defs>
</svg>
