<svg width="43" height="44" viewBox="0 0 43 44" fill="none" xmlns="http://www.w3.org/2000/svg">
<path d="M1.37545 22.046C1.41903 22.0459 1.46256 22.043 1.50578 22.0374C8.54563 21.0821 15.4117 19.1202 21.8934 16.2116C28.439 13.2666 34.5206 9.38356 39.9464 4.68481L38.7792 9.35573C38.7177 9.60214 38.7566 9.86286 38.8872 10.0806C39.0178 10.2984 39.2296 10.4555 39.4759 10.5172C39.5521 10.5361 39.6303 10.5457 39.7088 10.546C39.9224 10.5457 40.1298 10.4741 40.298 10.3425C40.4663 10.2109 40.5857 10.0268 40.6374 9.81956L42.5541 2.1529C42.5893 2.01173 42.5919 1.86441 42.5617 1.72209C42.5315 1.57977 42.4693 1.44619 42.3798 1.33148C42.2903 1.21678 42.1759 1.12395 42.0452 1.06005C41.9145 0.99614 41.7709 0.962832 41.6255 0.962646H33.9588C33.7046 0.962646 33.4609 1.06361 33.2811 1.24334C33.1014 1.42306 33.0005 1.66681 33.0005 1.92098C33.0005 2.17515 33.1014 2.4189 33.2811 2.59862C33.4609 2.77835 33.7046 2.87931 33.9588 2.87931H39.1041C33.7153 7.61498 27.6495 11.5195 21.1075 14.4636C14.7931 17.2969 8.10424 19.2079 1.24607 20.1379C1.00513 20.1705 0.785559 20.2934 0.631846 20.4818C0.478132 20.6701 0.401765 20.9099 0.418213 21.1525C0.43466 21.3951 0.542694 21.6223 0.720429 21.7882C0.898165 21.9541 1.13231 22.0463 1.37545 22.046Z" fill="#F54602"/>
<path d="M41.6253 41.2127H40.667V15.3377C40.667 15.0836 40.566 14.8398 40.3863 14.6601C40.2066 14.4804 39.9628 14.3794 39.7087 14.3794H30.1253C29.8712 14.3794 29.6274 14.4804 29.4477 14.6601C29.268 14.8398 29.167 15.0836 29.167 15.3377V41.2127H27.2503V21.0877C27.2503 20.8336 27.1494 20.5898 26.9696 20.4101C26.7899 20.2304 26.5462 20.1294 26.292 20.1294H16.7087C16.4545 20.1294 16.2107 20.2304 16.031 20.4101C15.8513 20.5898 15.7503 20.8336 15.7503 21.0877V41.2127H13.8337V26.8377C13.8337 26.5836 13.7327 26.3398 13.553 26.1601C13.3732 25.9804 13.1295 25.8794 12.8753 25.8794H3.29199C3.03783 25.8794 2.79407 25.9804 2.61435 26.1601C2.43463 26.3398 2.33366 26.5836 2.33366 26.8377V41.2127H1.37533C1.12116 41.2127 0.877404 41.3137 0.697682 41.4934C0.517959 41.6731 0.416992 41.9169 0.416992 42.1711C0.416992 42.4252 0.517959 42.669 0.697682 42.8487C0.877404 43.0284 1.12116 43.1294 1.37533 43.1294H41.6253C41.8795 43.1294 42.1233 43.0284 42.303 42.8487C42.4827 42.669 42.5837 42.4252 42.5837 42.1711C42.5837 41.9169 42.4827 41.6731 42.303 41.4934C42.1233 41.3137 41.8795 41.2127 41.6253 41.2127ZM31.0837 16.2961H38.7503V41.2127H31.0837V16.2961ZM17.667 22.0461H25.3337V41.2127H17.667V22.0461ZM4.25033 27.7961H11.917V41.2127H4.25033V27.7961Z" fill="#F54602"/>
</svg>
