<svg width="40" height="40" viewBox="0 0 40 40" fill="none" xmlns="http://www.w3.org/2000/svg">
<path d="M2.49994 13.125C2.58203 13.1251 2.66332 13.109 2.73915 13.0775C2.81498 13.0461 2.88386 13 2.94181 12.9419L12.9418 2.94188C13.0573 2.82432 13.1216 2.66594 13.1209 2.50118C13.1201 2.33642 13.0543 2.17862 12.9378 2.06211C12.8213 1.94561 12.6635 1.87983 12.4988 1.87908C12.334 1.87833 12.1756 1.94268 12.0581 2.05813L2.05806 12.0581C1.97269 12.1463 1.91496 12.2575 1.89199 12.3781C1.86901 12.4986 1.88179 12.6232 1.92875 12.7366C1.97571 12.85 2.0548 12.9472 2.15629 13.0162C2.25778 13.0852 2.37723 13.123 2.49994 13.125Z" fill="#FFCF0F"/>
<path d="M2.49981 23.125C2.58189 23.1251 2.66319 23.109 2.73902 23.0775C2.81485 23.0461 2.88373 23 2.94168 22.9419L22.9417 2.94188C23.0571 2.82432 23.1215 2.66594 23.1207 2.50118C23.12 2.33642 23.0542 2.17862 22.9377 2.06211C22.8212 1.94561 22.6634 1.87983 22.4986 1.87908C22.3339 1.87833 22.1755 1.94268 22.0579 2.05813L2.05793 22.0581C1.9726 22.1463 1.91492 22.2575 1.89197 22.378C1.86902 22.4986 1.8818 22.6232 1.92876 22.7366C1.97571 22.8499 2.05478 22.9471 2.15624 23.0161C2.2577 23.0851 2.37712 23.123 2.49981 23.125Z" fill="#FFCF0F"/>
<path d="M33.0607 2.18311C33.0027 2.12506 32.9338 2.07901 32.858 2.04759C32.7822 2.01617 32.7009 2 32.6188 2C32.5368 2 32.4555 2.01617 32.3797 2.04759C32.3039 2.07901 32.235 2.12506 32.177 2.18311L2.17696 32.1831C2.09166 32.2713 2.03401 32.3825 2.01109 32.503C1.98816 32.6236 2.00096 32.7482 2.04792 32.8615C2.09487 32.9749 2.17394 33.072 2.27538 33.1411C2.37683 33.2101 2.49623 33.2479 2.61891 33.25C2.70099 33.2501 2.78229 33.234 2.85812 33.2025C2.93395 33.1711 3.00282 33.125 3.06078 33.0669L33.0608 3.0669C33.1188 3.00887 33.1649 2.93998 33.1963 2.86416C33.2277 2.78834 33.2439 2.70707 33.2439 2.62499C33.2439 2.54292 33.2277 2.46165 33.1963 2.38583C33.1648 2.31001 33.1188 2.24113 33.0607 2.18311Z" fill="#FFCF0F"/>
<path d="M37.9416 7.05812C37.8836 7.00007 37.8147 6.95402 37.7389 6.92261C37.6631 6.89119 37.5818 6.87502 37.4997 6.87502C37.4176 6.87502 37.3364 6.89119 37.2605 6.92261C37.1847 6.95402 37.1158 7.00007 37.0578 7.05812L7.05781 37.0581C6.97252 37.1463 6.91487 37.2575 6.89194 37.3781C6.86902 37.4986 6.88182 37.6232 6.92878 37.7365C6.97573 37.8499 7.0548 37.9471 7.15624 38.0161C7.25769 38.0851 7.37709 38.1229 7.49976 38.125C7.58185 38.1251 7.66314 38.109 7.73898 38.0776C7.81481 38.0461 7.88368 38 7.94164 37.9419L37.9416 7.94191C37.9997 7.88389 38.0457 7.815 38.0772 7.73918C38.1086 7.66335 38.1247 7.58208 38.1247 7.50001C38.1247 7.41794 38.1086 7.33667 38.0771 7.26085C38.0457 7.18503 37.9997 7.11614 37.9416 7.05812Z" fill="#FFCF0F"/>
<path d="M37.0578 17.0581L17.0578 37.0581C16.9446 37.1761 16.8821 37.3338 16.8838 37.4974C16.8855 37.6609 16.9512 37.8173 17.0669 37.9329C17.1825 38.0485 17.3389 38.1142 17.5024 38.1159C17.666 38.1176 17.8237 38.0551 17.9417 37.9419L37.9417 17.9419C38.055 17.8239 38.1176 17.6662 38.1159 17.5026C38.1143 17.339 38.0486 17.1826 37.9329 17.0669C37.8172 16.9512 37.6607 16.8855 37.4971 16.8838C37.3335 16.8822 37.1758 16.9448 37.0578 17.0581Z" fill="#FFCF0F"/>
<path d="M37.0581 27.0581L27.0581 37.0581C26.9447 37.1761 26.8822 37.3338 26.8838 37.4974C26.8855 37.661 26.9512 37.8174 27.0669 37.9331C27.1826 38.0488 27.339 38.1145 27.5026 38.1161C27.6662 38.1178 27.8239 38.0552 27.9419 37.9419L37.9419 27.9419C38.0554 27.824 38.1181 27.6662 38.1165 27.5025C38.1149 27.3388 38.0492 27.1823 37.9334 27.0665C37.8177 26.9508 37.6611 26.8851 37.4975 26.8835C37.3338 26.8819 37.176 26.9446 37.0581 27.0581Z" fill="#FFCF0F"/>
</svg>
