<svg width="71" height="72" viewBox="0 0 71 72" fill="none" xmlns="http://www.w3.org/2000/svg">
<g opacity="0.2">
<mask id="mask0_343_402" style="mask-type:luminance" maskUnits="userSpaceOnUse" x="4" y="3" width="63" height="66">
<path fill-rule="evenodd" clip-rule="evenodd" d="M27.993 5.1414C32.6477 2.46845 38.3717 2.46845 43.0264 5.1414L58.5169 14.0368C63.2042 16.7285 66.0945 21.7212 66.0945 27.1264V44.7767C66.0945 50.1819 63.2042 55.1746 58.5169 57.8663L43.0264 66.7617C38.3717 69.4346 32.6477 69.4346 27.993 66.7617L12.5025 57.8663C7.81512 55.1746 4.92485 50.1819 4.92485 44.7767V27.1264C4.92485 21.7212 7.81512 16.7285 12.5025 14.0368L27.993 5.1414Z" fill="white"/>
</mask>
<g mask="url(#mask0_343_402)">
<path fill-rule="evenodd" clip-rule="evenodd" d="M47.1184 -22.3194L113.961 120.256L114.551 119.982L47.7079 -22.5928L47.1184 -22.3194ZM110.709 120.256L43.8657 -22.3194L44.4552 -22.5928L111.298 119.982L110.709 120.256ZM40.6139 -22.3194L107.457 120.256L108.046 119.982L41.2033 -22.5928L40.6139 -22.3194ZM104.205 120.256L37.362 -22.3194L37.9515 -22.5928L104.794 119.982L104.205 120.256ZM34.1102 -22.3194L100.953 120.256L101.543 119.982L34.6997 -22.5928L34.1102 -22.3194ZM97.7013 120.256L30.8584 -22.3194L31.4478 -22.5928L98.2907 119.982L97.7013 120.256ZM27.6066 -22.3194L94.4495 120.256L95.039 119.982L28.196 -22.5928L27.6066 -22.3194ZM91.1976 120.256L24.3547 -22.3194L24.9442 -22.5928L91.7871 119.982L91.1976 120.256ZM21.102 -22.3194L87.9449 120.256L88.5344 119.982L21.6914 -22.5928L21.102 -22.3194ZM84.6931 120.256L17.8502 -22.3194L18.4396 -22.5928L85.2826 119.982L84.6931 120.256ZM14.5983 -22.3194L81.4413 120.256L82.0307 119.982L15.1878 -22.5928L14.5983 -22.3194ZM78.1894 120.256L11.3465 -22.3194L11.9359 -22.5928L78.7789 119.982L78.1894 120.256ZM8.09469 -22.3194L74.9376 120.256L75.5271 119.982L8.68414 -22.5928L8.09469 -22.3194ZM71.6858 120.256L4.84284 -22.3194L5.4323 -22.5928L72.2752 119.982L71.6858 120.256ZM1.59105 -22.3194L68.434 120.256L69.0234 119.982L2.1805 -22.5928L1.59105 -22.3194ZM65.1821 120.256L-1.6608 -22.3194L-1.07134 -22.5928L65.7716 119.982L65.1821 120.256ZM-4.91354 -22.3194L61.9294 120.256L62.5188 119.982L-4.32409 -22.5928L-4.91354 -22.3194ZM58.6775 120.256L-8.1654 -22.3194L-7.57594 -22.5928L59.267 119.982L58.6775 120.256ZM-11.4172 -22.3194L55.4257 120.256L56.0152 119.982L-10.8277 -22.5928L-11.4172 -22.3194ZM52.1739 120.256L-14.669 -22.3194L-14.0796 -22.5928L52.7634 119.982L52.1739 120.256ZM-17.9208 -22.3194L48.9221 120.256L49.5116 119.982L-17.3314 -22.5928L-17.9208 -22.3194ZM45.6702 120.256L-21.1727 -22.3194L-20.5832 -22.5928L46.2597 119.982L45.6702 120.256ZM-24.4245 -22.3194L42.4184 120.256L43.0079 119.982L-23.8351 -22.5928L-24.4245 -22.3194ZM39.1657 120.256L-27.6772 -22.3194L-27.0878 -22.5928L39.7552 119.982L39.1657 120.256ZM-30.9291 -22.3194L35.9139 120.256L36.5033 119.982L-30.3396 -22.5928L-30.9291 -22.3194ZM-34.1809 -22.3194L32.662 120.256L33.2515 119.982L-33.5915 -22.5928L-34.1809 -22.3194Z" fill="#F77736"/>
</g>
</g>
</svg>
