<svg xmlns="http://www.w3.org/2000/svg" width="13.704" height="18.333" viewBox="0 0 13.704 18.333">
  <g id="scroll-top" transform="translate(-1143.296 396.417) rotate(90)">
    <path id="Path_288" data-name="Path 288" d="M8.62,16.908a1.112,1.112,0,0,1-.778-.314L1.905,10.813a1.052,1.052,0,0,1,0-1.515L7.842,3.517a1.121,1.121,0,0,1,1.556,0,1.052,1.052,0,0,1,0,1.515L4.239,10.056,9.4,15.079a1.052,1.052,0,0,1,0,1.515A1.112,1.112,0,0,1,8.62,16.908Z" transform="translate(-398 -1160.203)" fill="#fff"/>
    <path id="Path_289" data-name="Path 289" d="M18.792,9.451H2.768a1.1,1.1,0,0,1,0-2.2H18.792a1.1,1.1,0,0,1,0,2.2Z" transform="translate(-397.947 -1158.498)" fill="#fff"/>
  </g>
</svg>
